<svg width="38" height="10" xmlns="http://www.w3.org/2000/svg">
 <!-- Created with SVG Editor - http://github.com/mzalive/SVG Editor/ -->

 <g>
  <title>background</title>
  <rect fill="#fff" id="canvas_background" height="12" width="40" y="-1" x="-1"/>
  <g display="none" overflow="visible" y="0" x="0" height="100%" width="100%" id="canvasGrid">
   <rect fill="url(#gridpattern)" stroke-width="0" y="0" x="0" height="100%" width="100%"/>
  </g>
 </g>
 <g>
  <title>Layer 1</title>
  <style transform="matrix(0.04181983137688494,0,0,0.04181983137688494,37.6867776004265,11.330665160912543) " type="text/css">.st0{fill:#F68A20;}
	.st1{fill:#F05B24;}
	.st2{fill:#0685C1;}</style>
  <g stroke="null" id="svg_8">
   <path stroke="null" id="svg_5" d="m6.02311,6.694803c-0.675489,0 -1.294687,-0.373802 -1.663704,-1.009264c-0.112581,-0.194377 -0.075054,-0.463514 0.087563,-0.598082c0.162618,-0.134569 0.387781,-0.089712 0.500362,0.104664c0.237672,0.403706 0.637962,0.642939 1.075779,0.642939c0.437817,0 0.838107,-0.239233 1.075779,-0.642939c0.112581,-0.194377 0.337744,-0.239233 0.500362,-0.104664c0.162618,0.134569 0.200145,0.403706 0.087563,0.598082c-0.369017,0.635463 -0.99447,1.009264 -1.663704,1.009264" class="st0"/>
   <path stroke="null" id="svg_6" d="m16.155443,6.56771c0.26269,0 0.412799,0.142045 0.412799,0.39623c0,0.254185 -0.150109,0.39623 -0.412799,0.39623l-2.695701,0c-0.375272,0 -0.40029,-0.254185 -0.40029,-0.336421c0,-0.134569 0.043782,-0.261661 0.162618,-0.448562l2.11403,-3.48383l-1.78254,0c-0.26269,0 -0.412799,-0.142045 -0.412799,-0.39623c0,-0.254185 0.150109,-0.403706 0.412799,-0.403706l2.51432,0c0.375272,0 0.40029,0.254185 0.40029,0.336421c0,0.134569 -0.043782,0.261661 -0.162618,0.448562l-2.151557,3.48383l2.001449,0m1.238396,-4.313669c-0.250181,0 -0.412799,0.186901 -0.412799,0.485942l0,4.209005c0,0.291565 0.162618,0.485942 0.412799,0.485942c0.250181,0 0.412799,-0.186901 0.412799,-0.485942l0,-4.209005c0,-0.291565 -0.162618,-0.485942 -0.412799,-0.485942m5.716638,0c-0.587926,0 -1.013233,0.246709 -1.38225,0.807411c-0.306472,-0.538274 -0.719271,-0.807411 -1.244651,-0.807411c-0.656725,0 -0.950688,0.328945 -1.11956,0.553226l0,-0.07476c0,-0.291565 -0.162618,-0.485942 -0.412799,-0.485942c-0.250181,0 -0.412799,0.186901 -0.412799,0.485942l0,4.209005c0,0.291565 0.162618,0.485942 0.412799,0.485942c0.250181,0 0.412799,-0.186901 0.412799,-0.485942l0,-2.788559c0,-0.695271 0.343999,-1.106452 0.92567,-1.106452c0.581671,0 0.931925,0.411182 0.931925,1.106452l0,2.788559c0,0.291565 0.162618,0.485942 0.412799,0.485942s0.412799,-0.186901 0.412799,-0.485942l0,-2.788559c0,-0.695271 0.343999,-1.106452 0.92567,-1.106452c0.581671,0 0.931925,0.411182 0.931925,1.106452l0,2.788559c0,0.291565 0.162618,0.485942 0.412799,0.485942c0.250181,0 0.412799,-0.186901 0.412799,-0.485942l0,-2.758655c-0.006255,-1.330733 -0.819343,-1.928816 -1.619922,-1.928816m4.396932,0c1.288433,0 1.963921,1.300829 1.963921,2.586706c0,1.285877 -0.675489,2.586706 -1.963921,2.586706c-0.556653,0 -0.956943,-0.201853 -1.18836,-0.605558l0,0.119616c0,0.291565 -0.162618,0.485942 -0.412799,0.485942c-0.250181,0 -0.412799,-0.186901 -0.412799,-0.485942l0,-5.891112c0,-0.291565 0.162618,-0.485942 0.412799,-0.485942c0.250181,0 0.412799,0.186901 0.412799,0.485942l0,1.824151c0.225163,-0.313993 0.637962,-0.62051 1.18836,-0.62051m-0.062545,0.799935c-0.888143,0 -1.200869,0.964408 -1.200869,1.786771c0,0.822363 0.312726,1.786771 1.200869,1.786771c0.888143,0 1.200869,-0.964408 1.200869,-1.786771c0,-0.822363 -0.312726,-1.786771 -1.200869,-1.786771m4.847258,-0.336421c0,-0.276613 -0.187636,-0.463514 -0.450326,-0.463514c-0.394035,0 -0.78807,0.381278 -1.000724,0.777507l0,-0.291565c0,-0.291565 -0.162618,-0.485942 -0.412799,-0.485942c-0.250181,0 -0.412799,0.186901 -0.412799,0.485942l0,4.209005c0,0.291565 0.162618,0.485942 0.412799,0.485942c0.250181,0 0.412799,-0.186901 0.412799,-0.485942l0,-2.369902c0,-1.098976 0.73178,-1.323257 0.956943,-1.368114c0.325235,-0.067284 0.494108,-0.231757 0.494108,-0.493418m3.483771,-0.463514c0.156363,0 0.387781,0.119616 0.387781,0.448562l0,4.283765c0,0.328945 -0.231417,0.448562 -0.387781,0.448562c-0.187636,0 -0.387781,-0.142045 -0.387781,-0.448562l0,-0.246709c-0.312726,0.456038 -0.73178,0.695271 -1.213378,0.695271c-1.32596,0 -2.026467,-1.300829 -2.026467,-2.586706c0,-1.285877 0.694252,-2.586706 2.026467,-2.586706c0.46909,0 0.838107,0.186901 1.213378,0.62051l0,-0.179425c0.006255,-0.306517 0.206399,-0.448562 0.387781,-0.448562m-1.594904,4.380954c0.888143,0 1.200869,-0.964408 1.200869,-1.786771c0,-0.822363 -0.312726,-1.786771 -1.200869,-1.786771c-0.888143,0 -1.200869,0.964408 -1.200869,1.786771c0,0.822363 0.312726,1.786771 1.200869,1.786771m2.827046,-4.455714c-0.287708,0 -0.52538,0.276613 -0.52538,0.627987c0,0.358849 0.237672,0.635463 0.52538,0.635463c0.287708,0 0.519126,-0.276613 0.519126,-0.635463c0,-0.351373 -0.231417,-0.627987 -0.519126,-0.627987l0,0zm0,0.097188c0.231417,0 0.419053,0.239233 0.419053,0.538274c0,0.299041 -0.187636,0.538274 -0.419053,0.530798c-0.231417,0 -0.425308,-0.231757 -0.425308,-0.538274c0,-0.291565 0.19389,-0.530798 0.425308,-0.530798l0,0zm-0.100072,0.598082l0.062545,0c0.075054,0 0.112581,0.029904 0.125091,0.119616c0.012509,0.089712 0.025018,0.156997 0.037527,0.179425l0.100072,0c-0.012509,-0.022428 -0.025018,-0.067284 -0.037527,-0.171949c-0.012509,-0.104664 -0.050036,-0.156997 -0.100072,-0.171949l0,-0.007476c0.062545,-0.022428 0.112581,-0.07476 0.112581,-0.171949c0,-0.067284 -0.018764,-0.11214 -0.056291,-0.149521c-0.037527,-0.029904 -0.093818,-0.052332 -0.181381,-0.052332c-0.0688,0 -0.118836,0.007476 -0.168872,0.014952l0,0.702747l0.093818,0l0,-0.291565l0.012509,0zm0,-0.328945c0.018764,0 0.037527,-0.007476 0.0688,-0.007476c0.106327,0 0.143854,0.059808 0.143854,0.127093c0,0.089712 -0.062545,0.119616 -0.143854,0.119616l-0.0688,0l0,-0.239233zm-19.126343,-1.41297c0,-0.306517 -0.206399,-0.560702 -0.46909,-0.560702c-0.256436,0 -0.46909,0.246709 -0.46909,0.560702c0,0.306517 0.206399,0.560702 0.46909,0.560702c0.256436,0 0.46909,-0.254185 0.46909,-0.560702m-13.046943,7.857308c-2.608138,0 -4.734677,-1.92134 -4.734677,-4.283765c0,-0.844791 0.26269,-1.652203 0.769307,-2.347473l-0.487853,-1.786771c-0.043782,-0.164473 0,-0.343897 0.106327,-0.456038c0.106327,-0.11214 0.26269,-0.142045 0.394035,-0.067284l1.607413,0.927028c0.713016,-0.366325 1.51985,-0.560702 2.345448,-0.560702c2.608138,0 4.734677,1.92134 4.734677,4.283765c0,2.369902 -2.126539,4.291241 -4.734677,4.291241m-3.502535,-7.722739l0.287708,1.061596c0.043782,0.149521 0.012509,0.321469 -0.081309,0.43361c-0.46909,0.575654 -0.713016,1.248497 -0.713016,1.936292c0,1.88396 1.801304,3.424022 4.015406,3.424022c2.214103,0 4.015406,-1.532586 4.015406,-3.424022c0,-1.88396 -1.801304,-3.424022 -4.015406,-3.424022c-0.781816,0 -1.544868,0.194377 -2.195339,0.560702c-0.100072,0.052332 -0.212654,0.052332 -0.312726,0l-1.000724,-0.568178z" class="st1"/>
   <path stroke="null" id="svg_7" d="m7.592996,3.622154c0,0.366325 -0.243927,0.657891 -0.550398,0.657891c-0.306472,0 -0.550398,-0.291565 -0.550398,-0.657891c0,-0.366325 0.243927,-0.657891 0.550398,-0.657891c0.306472,0 0.550398,0.299041 0.550398,0.657891m-3.146027,0c0,0.366325 0.243927,0.657891 0.550398,0.657891c0.306472,0 0.550398,-0.291565 0.550398,-0.657891c0,-0.366325 -0.243927,-0.657891 -0.550398,-0.657891c-0.300217,0 -0.550398,0.299041 -0.550398,0.657891m6.886234,5.771495c0.087563,0 0.168872,-0.03738 0.237672,-0.104664c0.106327,-0.11214 0.150109,-0.291565 0.106327,-0.456038l-0.487853,-1.786771c0.506617,-0.695271 0.769307,-1.502682 0.769307,-2.347473c0,-2.362426 -2.126539,-4.283765 -4.734677,-4.283765c-2.608138,0 -4.734677,1.92134 -4.734677,4.283765c0,2.362426 2.126539,4.283765 4.734677,4.283765c0.825598,0 1.632432,-0.194377 2.345448,-0.560702l1.607413,0.927028c0.050036,0.029904 0.106327,0.044856 0.156363,0.044856m-1.757522,-1.876484c-0.050036,0 -0.106327,0.014952 -0.156363,0.044856c-0.656725,0.366325 -1.413523,0.560702 -2.195339,0.560702c-2.214103,0 -4.015406,-1.532586 -4.015406,-3.424022c0,-1.88396 1.801304,-3.424022 4.015406,-3.424022c2.214103,0 4.015406,1.532586 4.015406,3.424022c0,0.695271 -0.250181,1.368114 -0.713016,1.943768c-0.093818,0.11214 -0.125091,0.284089 -0.081309,0.43361l0.287708,1.061596l-0.99447,-0.575654c-0.056291,-0.029904 -0.106327,-0.044856 -0.162618,-0.044856m3.708934,1.95872l0.562907,0l0.118836,0.343897l0.131345,0l-0.475344,-1.315781l-0.106327,0l-0.481599,1.315781l0.131345,0l0.118836,-0.343897zm0.281454,-0.814887l0.237672,0.687795l-0.475344,0l0.237672,-0.687795zm2.395484,0.164473c-0.018764,-0.029904 -0.043782,-0.052332 -0.081309,-0.067284c-0.031273,-0.014952 -0.062545,-0.022428 -0.093818,-0.022428c-0.018764,0 -0.037527,0 -0.056291,0.007476c-0.018764,0.007476 -0.037527,0.014952 -0.050036,0.022428c-0.018764,0.007476 -0.031273,0.022428 -0.037527,0.044856c-0.012509,0.014952 -0.012509,0.03738 -0.012509,0.059808c0,0.03738 0.012509,0.067284 0.037527,0.089712c0.025018,0.022428 0.056291,0.03738 0.093818,0.052332c0.037527,0.014952 0.081309,0.029904 0.118836,0.044856c0.043782,0.014952 0.081309,0.03738 0.125091,0.059808c0.037527,0.029904 0.0688,0.067284 0.093818,0.11214c0.025018,0.044856 0.037527,0.104664 0.037527,0.186901c0,0.07476 -0.012509,0.134569 -0.031273,0.194377c-0.025018,0.052332 -0.056291,0.097188 -0.093818,0.134569c-0.037527,0.03738 -0.081309,0.059808 -0.1376,0.082236c-0.050036,0.014952 -0.106327,0.022428 -0.162618,0.022428c-0.0688,0 -0.1376,-0.014952 -0.200145,-0.03738c-0.062545,-0.022428 -0.118836,-0.067284 -0.168872,-0.127093l0.175127,-0.224281c0.025018,0.03738 0.056291,0.067284 0.093818,0.089712c0.037527,0.022428 0.075054,0.029904 0.118836,0.029904c0.018764,0 0.037527,0 0.062545,-0.007476c0.018764,-0.007476 0.037527,-0.014952 0.056291,-0.022428c0.018764,-0.007476 0.031273,-0.022428 0.037527,-0.044856c0.012509,-0.014952 0.012509,-0.03738 0.012509,-0.059808c0,-0.03738 -0.012509,-0.067284 -0.037527,-0.097188c-0.025018,-0.022428 -0.056291,-0.044856 -0.093818,-0.059808c-0.037527,-0.014952 -0.081309,-0.029904 -0.125091,-0.044856c-0.043782,-0.014952 -0.087563,-0.03738 -0.125091,-0.067284c-0.037527,-0.029904 -0.0688,-0.059808 -0.093818,-0.104664c-0.025018,-0.044856 -0.037527,-0.104664 -0.037527,-0.179425c0,-0.067284 0.012509,-0.134569 0.037527,-0.186901c0.025018,-0.052332 0.056291,-0.097188 0.093818,-0.134569c0.037527,-0.03738 0.081309,-0.059808 0.131345,-0.082236c0.050036,-0.014952 0.100072,-0.029904 0.156363,-0.029904c0.062545,0 0.125091,0.007476 0.181381,0.029904c0.056291,0.022428 0.112581,0.059808 0.156363,0.104664l-0.181381,0.231757zm1.006979,0.43361l-0.412799,-0.755079l0.300217,0l0.231417,0.493418l0.243927,-0.493418l0.287708,0l-0.412799,0.755079l0,0.560702l-0.243927,0l0,-0.560702l0.006255,0zm1.125815,-0.747603l0.33149,0l0.46909,0.912076l0,0l0,-0.912076l0.243927,0l0,1.308305l-0.318981,0l-0.481599,-0.934504l0,0l0,0.934504l-0.243927,0l0,-1.308305zm1.538614,1.308305l0.268945,0l0.093818,-0.276613l0.425308,0l0.093818,0.276613l0.275199,0l-0.475344,-1.315781l-0.200145,0l-0.481599,1.315781zm0.700507,-0.523322l-0.268945,0l0.131345,-0.411182l0.1376,0.411182zm1.669959,-0.448562c-0.025018,-0.03738 -0.056291,-0.059808 -0.087563,-0.082236c-0.037527,-0.014952 -0.075054,-0.029904 -0.118836,-0.029904s-0.087563,0.007476 -0.125091,0.029904c-0.037527,0.022428 -0.075054,0.052332 -0.100072,0.089712c-0.031273,0.03738 -0.050036,0.082236 -0.0688,0.134569c-0.018764,0.052332 -0.025018,0.104664 -0.025018,0.171949c0,0.059808 0.006255,0.119616 0.025018,0.171949c0.018764,0.052332 0.037527,0.097188 0.0688,0.134569c0.025018,0.03738 0.062545,0.067284 0.100072,0.089712c0.037527,0.022428 0.081309,0.029904 0.118836,0.029904c0.050036,0 0.093818,-0.014952 0.131345,-0.03738c0.037527,-0.022428 0.0688,-0.059808 0.093818,-0.104664l0.200145,0.179425c-0.043782,0.07476 -0.106327,0.134569 -0.175127,0.171949c-0.0688,0.03738 -0.143854,0.052332 -0.218908,0.052332c-0.087563,0 -0.162618,-0.014952 -0.237672,-0.044856c-0.075054,-0.029904 -0.1376,-0.07476 -0.187636,-0.142045c-0.050036,-0.059808 -0.093818,-0.134569 -0.125091,-0.216805c-0.031273,-0.082236 -0.043782,-0.179425 -0.043782,-0.284089c0,-0.104664 0.012509,-0.201853 0.043782,-0.284089s0.0688,-0.156997 0.125091,-0.216805c0.050036,-0.059808 0.112581,-0.104664 0.187636,-0.134569c0.075054,-0.029904 0.150109,-0.044856 0.237672,-0.044856c0.031273,0 0.062545,0 0.100072,0.007476c0.031273,0.007476 0.0688,0.014952 0.100072,0.029904c0.031273,0.014952 0.062545,0.03738 0.093818,0.059808c0.031273,0.022428 0.056291,0.052332 0.081309,0.089712l-0.19389,0.179425zm0.675489,0.313993c0,0.104664 0.012509,0.201853 0.043782,0.284089c0.031273,0.082236 0.0688,0.156997 0.125091,0.216805c0.050036,0.059808 0.112581,0.104664 0.187636,0.134569c0.075054,0.029904 0.150109,0.044856 0.237672,0.044856c0.087563,0 0.162618,-0.014952 0.237672,-0.044856c0.075054,-0.029904 0.1376,-0.07476 0.187636,-0.134569c0.050036,-0.059808 0.093818,-0.134569 0.125091,-0.216805c0.031273,-0.082236 0.043782,-0.179425 0.043782,-0.284089c0,-0.104664 -0.012509,-0.201853 -0.043782,-0.284089c-0.031273,-0.082236 -0.0688,-0.156997 -0.125091,-0.216805c-0.050036,-0.059808 -0.112581,-0.104664 -0.187636,-0.134569c-0.075054,-0.029904 -0.150109,-0.044856 -0.237672,-0.044856c-0.087563,0 -0.162618,0.014952 -0.237672,0.044856c-0.075054,0.029904 -0.1376,0.07476 -0.187636,0.134569c-0.050036,0.059808 -0.093818,0.134569 -0.125091,0.216805c-0.031273,0.089712 -0.043782,0.179425 -0.043782,0.284089m0.250181,0c0,-0.059808 0.006255,-0.119616 0.025018,-0.171949c0.018764,-0.052332 0.037527,-0.097188 0.0688,-0.134569c0.031273,-0.03738 0.0688,-0.067284 0.106327,-0.089712c0.043782,-0.022428 0.087563,-0.029904 0.1376,-0.029904c0.050036,0 0.100072,0.007476 0.1376,0.029904c0.043782,0.022428 0.075054,0.052332 0.106327,0.089712c0.031273,0.03738 0.050036,0.082236 0.0688,0.134569c0.018764,0.052332 0.025018,0.104664 0.025018,0.171949c0,0.059808 -0.006255,0.119616 -0.025018,0.171949c-0.018764,0.052332 -0.037527,0.097188 -0.0688,0.134569c-0.031273,0.03738 -0.0688,0.067284 -0.106327,0.089712c-0.043782,0.022428 -0.087563,0.029904 -0.1376,0.029904c-0.050036,0 -0.100072,-0.007476 -0.1376,-0.029904c-0.043782,-0.022428 -0.075054,-0.052332 -0.106327,-0.089712c-0.031273,-0.03738 -0.050036,-0.082236 -0.0688,-0.134569c-0.018764,-0.052332 -0.025018,-0.104664 -0.025018,-0.171949m1.488577,0.657891l0.243927,0l0,-0.523322l0.118836,0l0.231417,0.523322l0.287708,0l-0.281454,-0.553226c0.075054,-0.014952 0.1376,-0.059808 0.175127,-0.127093c0.037527,-0.067284 0.062545,-0.142045 0.062545,-0.239233c0,-0.07476 -0.012509,-0.142045 -0.031273,-0.194377c-0.025018,-0.052332 -0.050036,-0.089712 -0.087563,-0.119616c-0.037527,-0.029904 -0.081309,-0.052332 -0.131345,-0.067284c-0.050036,-0.014952 -0.100072,-0.022428 -0.156363,-0.022428l-0.425308,0l0,1.323257l-0.006255,0zm0.243927,-1.069072l0.156363,0c0.018764,0 0.043782,0 0.0688,0.007476c0.025018,0 0.043782,0.007476 0.062545,0.022428c0.018764,0.007476 0.031273,0.022428 0.043782,0.044856c0.012509,0.022428 0.018764,0.044856 0.018764,0.082236c0,0.03738 -0.006255,0.067284 -0.018764,0.082236c-0.012509,0.022428 -0.031273,0.03738 -0.050036,0.044856c-0.018764,0.007476 -0.043782,0.014952 -0.0688,0.014952c-0.025018,0 -0.050036,0 -0.0688,0l-0.143854,0l0,-0.299041zm2.032721,1.069072l0.112581,0l0,-0.613034l0.206399,0c0.112581,0 0.200145,-0.029904 0.26269,-0.089712c0.062545,-0.059808 0.100072,-0.149521 0.100072,-0.261661c0,-0.119616 -0.031273,-0.201853 -0.100072,-0.261661c-0.062545,-0.059808 -0.150109,-0.089712 -0.26269,-0.089712l-0.318981,0l0,1.315781zm0.112581,-1.188689l0.181381,0c0.050036,0 0.093818,0.007476 0.125091,0.014952c0.037527,0.014952 0.062545,0.029904 0.081309,0.052332c0.018764,0.022428 0.037527,0.044856 0.043782,0.07476c0.006255,0.029904 0.012509,0.059808 0.012509,0.089712c0,0.029904 -0.006255,0.059808 -0.012509,0.089712c-0.006255,0.029904 -0.025018,0.052332 -0.043782,0.07476c-0.018764,0.022428 -0.050036,0.03738 -0.081309,0.052332c-0.037527,0.014952 -0.075054,0.014952 -0.125091,0.014952l-0.181381,0l0,-0.463514zm1.282178,0.58313l0.187636,0l0.300217,0.613034l0.1376,0l-0.318981,-0.62051c0.093818,-0.007476 0.162618,-0.044856 0.206399,-0.11214c0.050036,-0.059808 0.075054,-0.142045 0.075054,-0.231757c0,-0.119616 -0.031273,-0.201853 -0.100072,-0.261661c-0.062545,-0.059808 -0.150109,-0.089712 -0.26269,-0.089712l-0.337744,0l0,1.308305l0.112581,0l0,-0.605558zm0,-0.58313l0.200145,0c0.050036,0 0.093818,0.007476 0.125091,0.014952c0.037527,0.014952 0.062545,0.029904 0.081309,0.052332s0.037527,0.044856 0.043782,0.07476c0.006255,0.029904 0.012509,0.059808 0.012509,0.089712c0,0.029904 -0.006255,0.059808 -0.012509,0.089712c-0.006255,0.029904 -0.025018,0.052332 -0.043782,0.07476c-0.018764,0.022428 -0.050036,0.03738 -0.081309,0.052332c-0.037527,0.014952 -0.075054,0.014952 -0.125091,0.014952l-0.200145,0l0,-0.463514zm2.270393,0.530798c0,-0.097188 -0.012509,-0.194377 -0.043782,-0.276613c-0.031273,-0.082236 -0.0688,-0.156997 -0.118836,-0.216805c-0.050036,-0.059808 -0.112581,-0.11214 -0.181381,-0.142045c-0.0688,-0.03738 -0.143854,-0.052332 -0.225163,-0.052332c-0.081309,0 -0.156363,0.014952 -0.225163,0.052332c-0.0688,0.03738 -0.131345,0.082236 -0.181381,0.142045c-0.050036,0.059808 -0.093818,0.134569 -0.118836,0.216805c-0.031273,0.082236 -0.043782,0.179425 -0.043782,0.276613c0,0.097188 0.012509,0.194377 0.043782,0.276613c0.031273,0.082236 0.0688,0.156997 0.118836,0.216805c0.050036,0.059808 0.112581,0.11214 0.181381,0.142045c0.0688,0.03738 0.143854,0.052332 0.225163,0.052332c0.081309,0 0.156363,-0.014952 0.225163,-0.052332c0.0688,-0.03738 0.131345,-0.082236 0.181381,-0.142045c0.050036,-0.059808 0.093818,-0.134569 0.118836,-0.216805c0.025018,-0.082236 0.043782,-0.171949 0.043782,-0.276613m-0.125091,0c0,0.07476 -0.012509,0.149521 -0.031273,0.216805c-0.018764,0.067284 -0.050036,0.127093 -0.087563,0.179425c-0.037527,0.052332 -0.087563,0.097188 -0.143854,0.127093c-0.056291,0.029904 -0.118836,0.044856 -0.187636,0.044856c-0.0688,0 -0.131345,-0.014952 -0.187636,-0.044856c-0.056291,-0.029904 -0.100072,-0.07476 -0.143854,-0.127093c-0.037527,-0.052332 -0.0688,-0.11214 -0.087563,-0.179425c-0.018764,-0.067284 -0.031273,-0.142045 -0.031273,-0.216805c0,-0.07476 0.012509,-0.149521 0.031273,-0.216805c0.018764,-0.067284 0.050036,-0.127093 0.087563,-0.179425c0.037527,-0.052332 0.087563,-0.097188 0.143854,-0.127093c0.056291,-0.029904 0.118836,-0.044856 0.187636,-0.044856c0.0688,0 0.131345,0.014952 0.187636,0.044856c0.056291,0.029904 0.106327,0.07476 0.143854,0.127093c0.037527,0.052332 0.0688,0.11214 0.087563,0.179425c0.025018,0.07476 0.031273,0.142045 0.031273,0.216805m0.719271,0.657891l0.362763,0c0.0688,0 0.1376,-0.014952 0.206399,-0.03738c0.0688,-0.029904 0.131345,-0.067284 0.187636,-0.127093c0.056291,-0.052332 0.100072,-0.127093 0.131345,-0.201853s0.050036,-0.179425 0.050036,-0.284089c0,-0.11214 -0.018764,-0.201853 -0.050036,-0.284089c-0.031273,-0.082236 -0.081309,-0.149521 -0.131345,-0.209329c-0.056291,-0.052332 -0.118836,-0.097188 -0.187636,-0.127093c-0.0688,-0.029904 -0.1376,-0.03738 -0.206399,-0.03738l-0.362763,0l0,1.308305zm0.112581,-1.188689l0.218908,0c0.081309,0 0.156363,0.014952 0.218908,0.044856c0.062545,0.029904 0.112581,0.067284 0.156363,0.119616c0.043782,0.052332 0.0688,0.104664 0.093818,0.171949c0.018764,0.067284 0.031273,0.127093 0.031273,0.194377c0,0.067284 -0.012509,0.134569 -0.031273,0.194377c-0.018764,0.067284 -0.050036,0.119616 -0.093818,0.171949c-0.043782,0.052332 -0.093818,0.089712 -0.156363,0.119616c-0.062545,0.029904 -0.131345,0.044856 -0.218908,0.044856l-0.218908,0l0,-1.061596zm2.226612,0.702747c0,0.052332 -0.006255,0.11214 -0.018764,0.171949c-0.012509,0.059808 -0.031273,0.119616 -0.062545,0.171949c-0.031273,0.052332 -0.0688,0.097188 -0.125091,0.127093c-0.050036,0.03738 -0.118836,0.052332 -0.200145,0.052332c-0.081309,0 -0.150109,-0.014952 -0.200145,-0.052332c-0.050036,-0.03738 -0.093818,-0.07476 -0.125091,-0.127093c-0.031273,-0.052332 -0.050036,-0.11214 -0.062545,-0.171949c-0.012509,-0.059808 -0.018764,-0.119616 -0.018764,-0.171949l0,-0.822363l0.112581,0l0,0.807411c0,0.059808 0.006255,0.119616 0.012509,0.164473c0.012509,0.044856 0.025018,0.082236 0.043782,0.11214c0.018764,0.029904 0.037527,0.052332 0.056291,0.07476c0.018764,0.014952 0.043782,0.029904 0.062545,0.044856c0.018764,0.007476 0.043782,0.014952 0.062545,0.022428c0.018764,0 0.037527,0.007476 0.050036,0.007476c0.012509,0 0.031273,0 0.050036,-0.007476c0.018764,0 0.043782,-0.007476 0.062545,-0.022428c0.018764,-0.007476 0.043782,-0.022428 0.062545,-0.044856c0.018764,-0.014952 0.037527,-0.044856 0.056291,-0.07476c0.018764,-0.029904 0.031273,-0.067284 0.043782,-0.11214c0.012509,-0.044856 0.012509,-0.097188 0.012509,-0.164473l0,-0.807411l0.112581,0l0,0.822363l0.012509,0zm1.576141,0.284089c-0.018764,0.029904 -0.043782,0.067284 -0.0688,0.097188c-0.025018,0.029904 -0.056291,0.052332 -0.093818,0.07476c-0.037527,0.022428 -0.075054,0.03738 -0.112581,0.052332c-0.043782,0.014952 -0.081309,0.014952 -0.131345,0.014952c-0.081309,0 -0.156363,-0.014952 -0.225163,-0.052332c-0.0688,-0.03738 -0.131345,-0.082236 -0.181381,-0.142045c-0.050036,-0.059808 -0.093818,-0.134569 -0.118836,-0.216805c-0.031273,-0.082236 -0.043782,-0.179425 -0.043782,-0.276613c0,-0.097188 0.012509,-0.194377 0.043782,-0.276613c0.031273,-0.082236 0.0688,-0.156997 0.118836,-0.216805c0.050036,-0.059808 0.112581,-0.11214 0.181381,-0.142045c0.0688,-0.03738 0.143854,-0.052332 0.225163,-0.052332c0.0688,0 0.1376,0.014952 0.206399,0.044856c0.0688,0.029904 0.125091,0.082236 0.175127,0.156997l-0.100072,0.089712c-0.012509,-0.022428 -0.025018,-0.044856 -0.043782,-0.059808c-0.018764,-0.022428 -0.043782,-0.03738 -0.0688,-0.052332c-0.025018,-0.014952 -0.050036,-0.029904 -0.081309,-0.03738c-0.031273,-0.007476 -0.056291,-0.014952 -0.087563,-0.014952c-0.0688,0 -0.131345,0.014952 -0.187636,0.044856c-0.056291,0.029904 -0.100072,0.07476 -0.143854,0.127093c-0.037527,0.052332 -0.0688,0.11214 -0.087563,0.179425c-0.018764,0.067284 -0.031273,0.142045 -0.031273,0.216805c0,0.07476 0.012509,0.149521 0.031273,0.216805c0.018764,0.067284 0.050036,0.127093 0.087563,0.179425c0.037527,0.052332 0.087563,0.097188 0.143854,0.127093c0.056291,0.029904 0.118836,0.044856 0.187636,0.044856c0.031273,0 0.056291,0 0.087563,-0.007476c0.031273,-0.007476 0.056291,-0.014952 0.081309,-0.029904c0.025018,-0.014952 0.056291,-0.03738 0.075054,-0.059808c0.025018,-0.022428 0.043782,-0.059808 0.0688,-0.097188l0.093818,0.067284zm0.92567,0.201853l-0.112581,0l0,-1.188689l-0.369017,0l0,-0.119616l0.850616,0l0,0.119616l-0.369017,0l0,1.188689z" class="st2"/>
  </g>
 </g>
</svg>