<svg width="17" height="9.999999999999998" xmlns="http://www.w3.org/2000/svg">
 <!-- Created with SVG Editor - http://github.com/mzalive/SVG Editor/ -->

 <g>
  <title>background</title>
  <rect fill="#fff" id="canvas_background" height="12" width="19" y="-1" x="-1"/>
  <g display="none" overflow="visible" y="0" x="0" height="100%" width="100%" id="canvasGrid">
   <rect fill="url(#gridpattern)" stroke-width="0" y="0" x="0" height="100%" width="100%"/>
  </g>
 </g>
 <g>
  <title>Layer 1</title>
  <style transform="matrix(0.04181983137688494,0,0,0.04181983137688494,37.6867776004265,11.330665160912543) " type="text/css">.st0{fill:#F68A20;}
	.st1{fill:#F05B24;}
	.st2{fill:#0685C1;}</style>
  <g stroke="null" id="svg_26">
   <g stroke="null" transform="matrix(0.09077108982521657,0,0,0.10615979355874844,-5.260515231659315,-5.183297493255957) " id="svg_12" clip-rule="evenodd" fill-rule="evenodd">
    <path stroke="null" id="svg_13" d="m55.183887,-0.908076l192.756,0l0,192.756l-192.756,0l0,-192.756z" fill="#fff"/>
    <path stroke="null" id="svg_14" d="m152.956887,75.005924l11.199,10.03c5.184,4.514 21.9,-1.839 21.9,-12.203c0,-10.699 -14.545,-18.07 -33.1,-18.07c-18.556,0 -33.1,7.372 -33.1,18.07c0,10.364 16.717,16.717 21.899,12.203l11.202,-10.03z"/>
    <path stroke="null" id="svg_15" fill="#fff" d="m152.956887,66.144924l14.543,13.708c3.512,3.678 16.217,2.341 16.217,-7.857c0,-9.027 -12.205,-15.379 -30.76,-15.379c-18.556,0 -30.76,6.353 -30.76,15.379c0,10.198 12.705,11.535 16.215,7.857l14.545,-13.708z"/>
    <path stroke="null" id="svg_16" d="m89.013887,90.969924s-20.437,21.063 -25.326,23.194l16.174,0s2.517,-1.887 5.754,-4.639l10.043,0l0,4.639l12.037,0l0,-23.194l-18.682,0zm106.414,0l0,23.194l12.037,0l0,-4.639l10.043,0a133.168,133.168 0 0 0 5.754,4.639l16.174,0c-4.889,-2.131 -25.326,-23.194 -25.326,-23.194l-18.682,0zm-70.054,16.55l0,6.645l-8.4,0c-5.517,0 -7.522,-1.881 -7.522,-7.396l0,-15.799l12.036,0l0,12.538c-0.001,2.256 0.626,4.012 3.886,4.012zm13.164,6.644l-11.158,0l0,-23.194l16.487,0c5.454,0 8.588,3.95 8.588,8.944c0,5.412 -4.326,8.734 -8.588,8.734l-3.949,0l0,-6.018c2.257,0 3.26,-0.836 3.26,-2.717c0,-1.379 -1.003,-2.174 -2.508,-2.174s-2.131,0.92 -2.131,2.174l0,14.251l-0.001,0zm26.869,0l0,-23.194l-11.619,0l0,23.194l11.619,0zm12.605,0l-10.518,0l0,-23.194l17.971,0c4.432,0 8.025,3.093 8.025,7.438l0,15.756l-10.777,0l0,-11.514c0,-1.697 -1.295,-2.361 -2.383,-2.361c-1.092,0 -2.318,0.941 -2.318,2.361l0,11.514zm50.979,-15.301c-1.473,0 -2.787,-1.02 -2.787,-2.773c0,-1.753 1.314,-2.772 2.787,-2.772c1.469,0 2.781,1.02 2.781,2.772c0,1.754 -1.313,2.773 -2.781,2.773z"/>
    <path stroke="null" id="svg_17" fill="#fff" d="m228.990887,93.962924c-1.1,0 -1.986,0.851 -1.986,2.127c0,1.275 0.887,2.135 1.986,2.127l0,0.008c1.072,0 1.98,-0.859 1.98,-2.135c0,-1.276 -0.908,-2.127 -1.98,-2.127z"/>
    <path stroke="null" id="svg_18" d="m228.529887,97.577924l-0.639,0l0,-2.985l1.115,0c0.77,0 1.225,0.22 1.225,0.903c0,0.549 -0.322,0.748 -0.719,0.777l0.764,1.305l-0.756,0l-0.689,-1.254l-0.301,0l0,1.254z"/>
    <path stroke="null" id="svg_19" fill="#fff" d="m229.093887,95.818924c0.285,0 0.455,-0.059 0.455,-0.389c0,-0.309 -0.33,-0.33 -0.572,-0.33l-0.447,0l0,0.719l0.564,0zm-138.053,8.818c1.652,-1.594 3.254,-3.26 4.618,-4.891l0,4.891l-4.618,0zm116.424,0l0,-4.891c1.363,1.631 2.967,3.297 4.617,4.891l-4.617,0z"/>
    <path stroke="null" id="svg_20" d="m77.026887,126.310924c0,3.811 -2.2,5.32 -6.173,5.32c-3.989,0 -6.189,-1.387 -6.189,-4.895l0,-6.404l3.324,0l0,6.176c0,1.982 1.029,2.867 2.865,2.867c2.185,0 2.849,-1.326 2.849,-3.264l0,-5.779l3.324,0l0,5.979zm4.935,4.937l0.125,-2.383c1.129,0.377 2.769,0.555 4.6,0.631c1.963,0 2.264,-0.67 2.264,-1.158c0,-0.732 -0.792,-0.977 -2.105,-1.221l-1.631,-0.305c-1.884,-0.35 -3.862,-1.021 -3.862,-3.125c0,-2.699 2.574,-3.787 5.186,-3.787c1.285,0 3.479,-0.031 5.297,0.533l-0.438,2.068c-1.588,-0.312 -4.058,-0.324 -4.63,-0.324c-1.456,0 -1.68,0.473 -1.68,1.082c0,0.748 0.636,0.945 1.854,1.189l1.535,0.305c2.089,0.412 4.049,1.146 4.049,3.328c0,3.064 -3.463,3.549 -6.028,3.549c-1.766,-0.022 -4.536,-0.382 -4.536,-0.382zm19.997,-10.916l3.974,0l5.936,11.01l-3.721,0l-1.076,-2.18l-6.648,0l-1.108,2.18l-3.419,0l6.062,-11.01z"/>
    <path stroke="null" id="svg_21" d="m103.795887,122.466924l-2.343,4.65l4.606,0l-2.263,-4.65z" fill="#fff"/>
    <path stroke="null" id="svg_22" d="m123.709887,120.331924l9.814,0l0,2.258l-6.49,0l0,2.043l6.142,0l0,2.256l-6.142,0l0,2.195l6.633,0l0,2.258l-9.957,0l0,-11.01zm19.214,7.092l-5.144,-7.092l4.084,0l2.928,4.698l2.897,-4.698l3.703,0l-5.144,7.092l0,3.918l-3.324,0l0,-3.918zm12.803,-7.092l9.814,0l0,2.258l-6.49,0l0,2.043l6.143,0l0,2.256l-6.143,0l0,2.195l6.633,0l0,2.258l-9.957,0l0,-11.01zm30.23,11.01l-4.019,0l-2.328,-8.66l-0.031,0l-2.469,8.66l-4.084,0l-3.229,-11.01l3.483,0l1.883,8.752l0.031,0l2.597,-8.752l4.004,0l2.28,8.752l0.031,0l2.043,-8.752l3.133,0l-3.325,11.01zm7.657,-11.01l9.814,0l0,2.258l-6.49,0l0,2.043l6.142,0l0,2.256l-6.142,0l0,2.195l6.633,0l0,2.258l-9.957,0l0,-11.01zm20.132,0l3.973,0l5.936,11.01l-3.719,0l-1.078,-2.18l-6.647,0l-1.109,2.18l-3.418,0l6.062,-11.01z"/>
    <path stroke="null" id="svg_23" d="m215.581887,122.466924l-2.343,4.65l4.607,0l-2.264,-4.65z" fill="#fff"/>
    <path stroke="null" id="svg_24" d="m227.507887,120.331924l6.98,0c2.754,0 4.32,0.961 4.32,2.883c0,1.402 -1.188,2.379 -2.896,2.668l0,0.031c0.965,0.061 1.867,0.273 2.248,0.959c0.555,1.008 0.617,3.324 1.092,4.469l-3.529,0c-0.365,-1.068 -0.316,-2.654 -0.633,-3.416c-0.207,-0.502 -0.713,-0.762 -2.043,-0.762l-2.215,0l0,4.178l-3.324,0l0,-11.01z"/>
    <path stroke="null" id="svg_25" fill="#fff" d="m230.831887,125.029924l2.643,0c1.52,0 2.01,-0.457 2.01,-1.297c0,-1.066 -0.869,-1.266 -2.469,-1.266l-2.184,0l0,2.563z"/>
   </g>
  </g>
 </g>
</svg>