<svg width="460" height="102" xmlns="http://www.w3.org/2000/svg">
 <!-- Created with SVG Editor - http://github.com/mzalive/SVG Editor/ -->

 <g>
  <title>background</title>
  <rect fill="#fff" id="canvas_background" height="104" width="462" y="-1" x="-1"/>
 </g>
 <g>
  <title>Layer 1</title>
  <g stroke="null" id="svg_7">
   <g stroke="null" transform="matrix(0.9938314287025997,0,0,1.3256749947949962,-4331.9454026811045,-4427.482209486072) " id="svg_4" fill="#00aeef">
    <path stroke="null" id="svg_5" d="m4471.437173,3405.555727l-20.034,0c2.593,-2.358 3.301,-10.843 4.243,-26.162l0.235,-3.536c0.707,-8.486 0.943,-15.32 0.943,-20.034c0,-4.007 -0.472,-6.6 -1.65,-7.543l22.391,0c5.421,0 16.027,0.236 16.027,11.313c0,7.543 -6.835,12.021 -13.198,13.671c8.956,0.706 15.556,5.185 15.556,14.377c0.236,9.9 -9.192,17.914 -24.513,17.914m-0.707,-27.813l-4.007,0l-0.706,8.485c-0.236,3.771 -0.472,6.836 -0.472,10.607c0,0.471 1.65,1.649 5.422,1.649c8.013,0 13.198,-4.007 13.198,-10.607c0.235,-7.305 -6.128,-10.134 -13.435,-10.134m1.651,-22.627c-1.179,0 -2.593,0 -4.008,0.235c-0.706,4.008 -0.942,7.778 -1.177,12.256c0,0 -0.236,3.536 -0.236,3.3l1.414,0c7.307,0 13.907,-2.592 13.907,-9.192c0.234,-3.771 -3.066,-6.599 -9.9,-6.599m70.708,50.911c-4.949,0 -5.421,-0.236 -9.192,-13.671l-1.414,-4.949c-2.357,1.178 -6.599,1.649 -13.199,1.649l-6.836,0l-1.178,2.592c-1.178,2.593 -4.006,8.015 -4.006,11.314c0,0.707 0,1.414 0.235,2.592l-13.671,0c3.771,-3.77 8.957,-12.963 15.792,-27.576l4.007,-8.486c3.535,-7.778 7.542,-16.499 7.542,-17.676c0,-1.179 -0.235,-2.122 -0.707,-3.301l12.492,0s3.3,12.256 6.128,22.627l2.358,8.957c4.242,15.32 7.07,22.626 10.37,25.455c-3.3,0.237 -7.306,0.473 -8.721,0.473m-17.913,-44.311l-9.428,20.035l15.085,0l-5.657,-20.035zm72.123,46.196c-4.242,0 -5.185,-0.706 -6.599,-2.592l-16.263,-22.156c-1.178,-1.885 -2.357,-3.064 -4.242,-3.064l-0.235,0l-0.236,4.478c-0.235,5.893 -0.706,10.607 -0.706,14.142c0,3.771 0.471,6.128 1.649,7.071l-15.556,0c2.358,-1.886 3.064,-8.485 4.479,-26.162l0.235,-3.536c0.706,-8.485 0.943,-15.32 0.943,-20.034c0,-4.007 -0.472,-6.599 -1.65,-7.542l20.977,0c7.071,0 16.263,1.178 16.263,12.256c0,9.192 -6.128,14.142 -13.67,16.498c0.707,0.708 2.121,2.358 2.828,3.301l11.55,15.319c7.306,9.664 7.777,10.136 10.371,11.314c-3.067,0.472 -7.31,0.707 -10.138,0.707m-20.741,-52.56c-1.415,0 -3.065,0 -4.479,0.236c-0.471,2.356 -0.706,6.599 -1.178,13.434l-0.235,4.008c0.707,0.235 1.886,0.235 2.592,0.235c7.071,0 12.021,-4.478 12.021,-10.842c-0.236,-4.479 -3.3,-7.071 -8.721,-7.071m51.146,51.382c-14.849,0 -23.334,-12.256 -23.334,-25.691c0,-18.855 10.371,-33.705 29.933,-33.705c6.129,0 8.957,1.179 14.142,1.179l-1.414,14.613c-2.829,-5.186 -7.543,-8.485 -13.671,-8.485c-12.256,0 -17.205,13.198 -17.205,24.512c0,12.256 7.071,19.092 16.027,19.092c4.95,0 9.428,-1.179 16.734,-6.364c-3.064,8.956 -9.899,14.849 -21.212,14.849m100.877,-0.707c-4.949,0 -5.184,-0.236 -9.192,-13.671l-1.414,-4.949c-2.357,1.178 -6.6,1.649 -13.198,1.649l-7.072,0l-1.177,2.592c-1.886,3.772 -4.008,8.25 -4.008,11.314c0,0.707 0.236,1.65 0.236,2.592l-40.54,0c2.358,-2.592 3.064,-11.078 4.242,-26.162l0.236,-3.536c0.707,-8.72 0.943,-15.319 0.943,-20.034c0,-3.771 -0.472,-6.364 -1.414,-7.542l15.791,0c-2.357,1.649 -3.064,10.842 -4.007,26.162l-0.235,3.536c-0.236,5.656 -1.178,11.549 -1.178,16.97c0,2.592 0.942,3.3 3.771,3.3c9.663,0 11.784,-0.235 16.262,-3.064c2.829,-4.95 5.657,-11.078 8.721,-17.442l4.006,-8.485c3.771,-8.013 7.543,-16.263 7.543,-17.677c0,-1.178 -0.235,-2.121 -0.707,-3.3l12.492,0s4.95,18.62 6.128,22.627l2.357,8.957c4.243,15.319 6.836,22.626 10.607,25.455c-3.3,0.472 -7.778,0.708 -9.193,0.708m-17.913,-44.311l-9.191,20.035l14.848,0l-5.657,-20.035zm53.74,12.963c-1.179,2.357 -3.065,5.185 -4.008,7.542c-0.942,4.242 -1.178,9.9 -1.178,16.028c0,2.592 0.472,6.128 1.65,7.306l-15.556,0c2.828,-2.592 3.771,-18.384 3.771,-23.57c-2.121,-7.07 -4.95,-14.142 -9.193,-22.626c-2.828,-5.186 -5.892,-10.136 -8.013,-11.078c3.535,-0.236 8.013,-0.472 10.135,-0.472c3.771,0 4.95,0.472 7.306,5.657c3.771,8.485 6.365,14.848 8.014,19.326c3.771,-6.128 6.6,-10.37 10.136,-16.262c0.706,-1.415 1.649,-3.3 1.649,-4.95c0,-1.178 -0.235,-2.828 -0.707,-3.3l15.32,0c-3.3,0.708 -16.498,21.686 -19.326,26.399m51.852,-12.963c-2.357,-4.242 -7.542,-7.542 -13.198,-7.542c-4.95,0 -9.192,1.885 -9.192,7.071c0,4.478 5.421,7.306 11.078,11.077c6.128,3.771 12.492,8.486 12.492,16.735c0,10.607 -10.372,17.442 -22.628,17.442c-4.95,0 -10.134,-0.943 -16.027,-3.064l0.943,-14.142c2.829,5.657 8.014,10.135 15.791,10.135c5.893,0 10.607,-2.829 10.607,-8.014c0,-4.242 -3.536,-7.071 -8.014,-9.663c-9.428,-5.657 -15.32,-10.135 -15.32,-18.384c0,-12.257 10.134,-16.263 20.977,-16.263c6.128,0 10.135,1.178 13.906,1.178l-1.415,13.434z"/>
    <path stroke="null" id="svg_6" d="m4428.542173,3356.529727c-0.708,-1.65 -1.886,-3.535 -4.008,-4.949c-0.942,-0.707 -2.121,-1.415 -3.3,-1.886c-0.943,-0.235 -1.885,-0.472 -3.064,-0.472l-0.235,0c-1.415,0 -4.007,0.236 -5.421,2.358c-0.707,0.706 -0.943,2.121 -0.707,3.299c0.235,0.944 0.943,1.886 1.886,2.122c0,0 0.235,0.235 0.707,0.235c0,0.236 -0.236,0.707 -0.236,0.707c-0.707,0.706 -1.886,1.885 -5.421,1.885l-0.236,0c-1.885,-0.235 -3.299,-0.706 -5.42,-2.828c-1.179,-1.414 -1.886,-4.007 -1.886,-8.014c0,-2.12 -0.236,-3.77 -0.707,-5.184c-0.236,-0.944 -1.178,-1.886 -1.886,-2.358c-0.707,-0.471 -1.178,-0.707 -2.357,-1.178c-1.415,-0.235 -2.829,-0.472 -4.007,-0.472c-1.414,0 -2.357,0.236 -2.828,0.943l-1.414,0l-2.357,0.236c-1.415,0.235 -2.357,0.943 -3.301,1.649c-0.235,0.236 -1.178,1.179 -1.414,2.121c0,0.707 0.235,1.414 0.235,1.65l0.236,0.235c0.472,-0.471 1.414,-0.706 2.593,-0.706c1.649,0 4.006,0.706 4.478,1.885c1.178,1.886 0.706,3.3 0.706,4.95c-0.706,4.478 -2.356,6.6 -5.892,7.071c-0.707,0.236 -1.414,0.236 -1.886,0.236c-2.592,0 -4.478,-0.707 -5.421,-2.358l0,-0.471s0.236,0 0.472,-0.236c0.942,-0.471 1.649,-1.178 1.885,-2.121c0.235,-1.178 0,-2.357 -0.706,-3.3c-1.414,-1.414 -3.301,-2.357 -5.422,-2.357c-1.414,0 -2.357,0.236 -3.3,0.471c-2.829,0.707 -5.421,3.064 -7.306,6.836c-1.414,2.829 -2.357,6.128 -2.592,9.899c-0.236,3.772 -0.236,6.836 0,9.664c0.235,4.713 1.178,7.542 2.357,10.606c1.178,3.064 2.592,5.893 4.241,8.485c0.472,0.707 0.708,1.414 1.179,1.886l0.236,-0.235c0.235,-0.236 0.471,-0.472 0.706,-0.943c0.943,-0.707 2.593,-3.064 3.064,-3.771c0.472,-0.707 1.179,-1.886 1.65,-3.064l0.235,-0.471l0.472,0.235c0.471,0.472 0.707,1.178 0.707,1.886c0,0.707 -0.236,1.414 -0.707,2.829c-0.472,1.649 -1.415,3.535 -2.357,5.42c0.235,0.236 0.235,0.708 0,0.708c-0.707,1.177 -0.707,1.649 -0.707,2.121l0.235,0c0.235,0 1.178,-0.235 1.886,-0.944c0.706,-0.471 2.592,-2.12 4.949,-5.42c1.886,-2.358 3.065,-4.95 4.479,-7.778l0.235,-0.472l0.471,0.236l0.707,0.471c0.236,0.471 0.236,1.178 0.236,1.885c-0.236,1.886 -1.414,4.479 -2.122,6.365c-1.414,3.3 -4.006,6.836 -5.892,9.428c0,0.235 -0.472,0.707 -0.707,0.707c0.235,0.236 0.472,0.471 0.943,0.706l0.707,0.707c2.593,2.122 4.949,3.772 8.013,5.422c2.358,1.414 7.072,3.77 10.372,4.713c3.299,-0.706 8.013,-3.3 10.371,-4.713c3.064,-1.65 5.42,-3.3 8.014,-5.422l0.706,-0.707l0.943,-0.706c0.236,-0.472 0.236,-0.707 0.236,-0.943l-0.236,-0.236c-1.886,-2.357 -4.478,-6.128 -5.893,-9.428c-0.706,-1.885 -1.885,-4.478 -2.121,-6.363c-0.235,-0.707 0,-1.415 0.236,-1.886l0.471,-0.472c0.235,-0.235 0.707,-0.235 0.707,-0.235l0.235,0.471c1.414,2.829 2.829,5.421 4.478,7.778c2.358,3.3 4.243,4.95 4.95,5.421c0.707,0.707 1.414,0.943 1.886,0.943l0.236,0c0.235,-0.235 0,-0.707 -0.708,-1.886c-0.235,-0.235 -0.235,-0.471 -0.235,-0.706c-0.942,-1.886 -1.886,-3.771 -2.357,-5.422c-0.472,-1.414 -0.707,-2.357 -0.707,-2.828c0,-0.708 0.235,-1.415 0.707,-1.886l0.471,-0.236l0.235,0.472c0.472,1.178 1.415,2.592 1.886,3.3l2.829,3.535c0.472,0.472 0.707,0.707 0.707,0.943l0.235,0.236c0.236,-0.236 0.471,-0.707 0.943,-1.65l0.235,-0.235c1.415,-2.358 2.829,-5.422 4.007,-8.486c1.179,-2.828 1.886,-5.892 2.358,-10.606c0.235,-2.828 0.471,-5.892 0,-9.663c0.239,-3.536 -0.704,-7.071 -1.881,-9.664z"/>
   </g>
  </g>
 </g>
</svg>