<svg width="278" height="102" xmlns="http://www.w3.org/2000/svg">
 <!-- Created with SVG Editor - http://github.com/mzalive/SVG Editor/ -->

 <g>
  <title>background</title>
  <rect fill="#fff" id="canvas_background" height="104" width="280" y="-1" x="-1"/>
 </g>
 <g>
  <title>Layer 1</title>
  <g stroke="null" id="svg_66">
   <path stroke="null" id="svg_11" fill="white" d="m96.976244,36.610579c-0.267264,-0.31285 -0.423774,-0.599177 -0.644739,-0.996819c-0.115294,-0.201327 -0.239666,-0.418944 -0.378019,-0.652224c0.382558,-0.508956 0.705018,-1.097482 0.949224,-1.744485l0.97664,-2.560652l-2.405015,-0.397641c-0.405254,-0.069128 -1.059616,-0.265234 -1.824187,-0.498514c-1.474311,-0.445258 -3.367675,-1.017912 -5.43171,-1.267273c0.705018,-0.355246 1.304002,-0.99661 1.723055,-1.866033l0.396176,-0.821806c0,0 -0.105853,-1.150738 -0.49295,-1.511205c0.147431,-0.355246 0.262725,-0.747666 0.340798,-1.177052l0.327181,-1.834497l-1.538767,-0.604503c-0.239485,-0.095442 -0.478969,-0.16434 -0.713915,-0.206673c-0.087515,-0.334236 -0.216426,-0.689231 -0.391637,-1.065779l-0.912003,-1.924614l-1.644982,1.108112c-0.409793,0.275592 -0.755494,0.593768 -1.036375,0.949035c-0.244205,-0.05313 -0.506931,-0.079424 -0.783273,-0.079424c0,0 -0.939782,-0.122007 -1.976339,0.312662l-1.326698,-1.585115l-1.571085,-1.930148c-1.46959,-1.807848 -3.45991,-2.343495 -5.486906,-1.452582c-0.773832,-0.890913 -1.980878,-1.627719 -3.855904,-1.627719c-0.635842,0 -1.193248,0.089929 -1.520428,0.137796c0,0 -2.579862,0.540617 -4.031114,2.126024l-1.759732,-0.965074c-1.179449,2.136821 -3.197185,2.815527 -3.197185,2.815527c-0.138353,-0.625575 -0.373117,-1.208838 -0.709376,-1.744485l0.114931,-0.752866c0,-0.02101 0.396176,-2.57147 1.603222,-4.734585l2.100893,-3.764541l-2.97622,0.387074c0.00926,-0.339478 -0.004539,-0.742341 -0.045936,-1.219615l-0.267264,-2.926758l-2.331118,1.214373c-0.258186,0.132533 -0.474612,0.265066 -0.677057,0.387074l-0.460994,-1.129414l-1.068694,0.636372c-0.106034,-0.302429 -0.244205,-0.646898 -0.433033,-1.044769l-1.230105,-2.597764l-1.746114,2.168357c-0.179568,0.222734 -0.33172,0.429407 -0.460631,0.625575l-1.059434,-1.214074l-1.069057,1.219608c-0.133451,-0.196168 -0.280882,-0.403113 -0.460631,-0.625847l-1.764452,-2.17362l-1.234645,2.608561c-0.188828,0.3976 -0.32246,0.736806 -0.428313,1.039214l-1.064155,-0.636352l-0.460994,1.129414c-0.202445,-0.122028 -0.419053,-0.254562 -0.677057,-0.392337l-2.340196,-1.208838l-0.258186,2.937263c-0.041397,0.471761 -0.055377,0.869632 -0.045936,1.208838l-2.980759,-0.387074l2.105432,3.764541c1.211586,2.157852 1.598502,4.708313 1.598502,4.729322l0.110573,0.752866c-0.336259,0.540909 -0.575925,1.124152 -0.709376,1.749748c0,0 -1.907163,-0.938509 -3.183567,-2.82079l-1.796589,0.986376c-2.050236,-1.590649 -3.321738,-2.210982 -5.533023,-2.285123c-1.875026,-0.058372 -3.082072,0.736806 -3.856085,1.627719c-2.031535,-0.88565 -4.017315,-0.350004 -5.482185,1.457845c0,0 -0.962841,1.203575 -1.57094,1.930148c-0.608099,0.731543 -1.506521,1.336088 -1.506521,1.336088c0,0 -1.276078,-0.328702 -2.589195,0.015768c-0.280954,-0.355246 -0.63094,-0.673171 -1.045635,-0.954277l-1.649394,-1.108112l-0.907555,1.935119c-0.17512,0.371306 -0.299474,0.721038 -0.382231,1.055274c-0.235,0.042333 -0.474576,0.111231 -0.714169,0.206673l-1.529597,0.615154l0.317994,1.823846c0.078182,0.440246 0.188828,0.832457 0.340853,1.187703c-0.087551,0.196315 -0.165733,0.402863 -0.230207,0.620479l-0.258095,0.885295l0.3916,0.821806c0.414695,0.864202 1.008832,1.511205 1.718425,1.866242c-2.068647,0.249152 -3.957381,0.822015 -5.436231,1.267064c-0.760123,0.228059 -1.414394,0.429804 -1.819703,0.498723l-2.414079,0.402863l0.548193,1.431426l0.437789,1.139878c0.248719,0.63656 0.575865,1.224878 0.953503,1.733834c-0.142874,0.233489 -0.750971,1.330762 -1.022783,1.643821l-1.220748,1.426204l1.170236,1.484472c0.147211,0.180233 1.460319,1.765787 3.584071,1.771008c0.580428,0 1.156281,-0.116745 1.727576,-0.350025c0.56672,1.017912 1.239256,2.051905 1.852167,2.560861c-1.128865,1.527077 -2.414075,2.852409 -4.243165,3.854658l-1.529361,0.837678l0.65861,2.009509c0.42864,1.214227 1.262351,2.544989 2.874706,3.054154c-0.34541,1.187494 -0.511143,2.311709 -0.658592,3.313539c-0.345664,2.380836 -0.493113,3.366795 -2.312816,4.103601l-1.635441,0.657863l0.470009,1.919288c0.377656,1.564042 0.944376,2.598035 1.557032,3.282004l-1.08725,1.378379c0,0 2.580062,2.226708 5.109104,2.497372c0.036803,0.005221 2.193019,0.164361 3.16049,-1.256622c0.387025,1.611868 0.999681,3.09634 1.557014,4.443184c1.142573,2.767618 1.750671,4.4058 0.985991,5.901133l-1.727576,3.372225l3.395254,-0.164361c1.483407,-0.069128 2.860998,-0.175221 4.054082,-0.514386c0,0.07414 -0.004539,0.143059 -0.009078,0.211978l-0.276524,2.894805l2.976038,-0.720934c0.313382,-0.106093 0.608062,-0.249361 0.875327,-0.413723c1.842889,2.481709 4.975617,4.41666 9.195378,4.41666l0.244205,0l-4.851064,2.290406l3.533625,2.115603c2.326579,1.39446 4.91098,2.560861 7.85942,3.552458l-0.410156,1.62774l1.773894,0.599177c1.022758,0.344595 4.721971,1.473821 9.227697,1.473821c4.505545,0 8.2004,-1.129226 9.227878,-1.473821l1.76881,-0.599177l-0.409975,-1.62231c2.952979,-0.991597 5.537744,-2.158207 7.864141,-3.552458l3.533625,-2.115394l-4.855784,-2.290615l0.244024,0c4.220124,0 7.348132,-1.93516 9.191021,-4.416869c0.267083,0.164779 0.562126,0.307838 0.875327,0.413723l2.975856,0.720934l-0.271803,-2.889375c-0.004539,-0.069128 -0.009078,-0.143268 -0.009078,-0.217408c1.188708,0.339165 2.570603,0.440037 4.049452,0.514386l3.395272,0.164361l-1.718153,-3.367004c-0.769474,-1.495123 -0.156872,-3.133515 0.981179,-5.901133c0.557587,-1.346634 1.170189,-2.831316 1.557286,-4.443184c0.653998,0.572654 1.359017,0.917457 2.059314,1.097691c0,0 0.543607,0.185663 1.064155,0.201327c1.501909,0.053047 2.2525,-0.439828 3.284699,-1.187494l1.875026,-1.357494l-1.096655,-1.378379c0.612965,-0.678747 1.179449,-1.71274 1.557286,-3.271561l0.474612,-1.924509l-1.640262,-0.657445c-1.824187,-0.737015 -1.967079,-1.723182 -2.312598,-4.10381c-0.147431,-1.00204 -0.30848,-2.131475 -0.658719,-3.313748c1.6123,-0.514386 2.441691,-1.845148 2.870004,-3.053945l0.654362,-2.014939l-1.529688,-0.837678c-1.82909,-1.001831 -3.114209,-2.327581 -4.247722,-3.854449c0.617504,-0.509165 1.290022,-1.543158 1.861408,-2.56107c0.566666,0.23328 1.142591,0.344804 1.727595,0.350025c2.12377,0 3.44139,-1.585345 3.584282,-1.765578l1.170189,-1.484681l-1.221027,-1.442077z"/>
   <path stroke="null" id="svg_12" fill="#FFDD2D" d="m2.142785,5.577875l0,-1.716743c0,-0.159875 -0.034297,-0.319728 -0.075285,-0.466632l0.989842,0c0.090744,0.167746 0.255503,0.28033 0.444522,0.28033c0.188179,0 0.352955,-0.112584 0.44411,-0.28033l0.989826,0c-0.041812,0.147481 -0.075697,0.306758 -0.075697,0.466632l0,1.716743l-2.717319,0zm1.358668,2.346022c-0.138406,-0.185194 -0.237111,-0.205458 -0.610122,-0.205458c-0.445792,0 -0.748545,-0.351809 -0.748545,-0.914087l0,-1.125731l2.716907,0l0,1.125731c0,0.562278 -0.302342,0.914087 -0.748957,0.914087c-0.3726,-0.000576 -0.471287,0.020264 -0.609282,0.205458z" clip-rule="evenodd" fill-rule="evenodd"/>
   <path stroke="null" id="svg_13" fill="white" d="m35.865152,86.836619l0,3.228957l-2.43697,1.129435c2.059314,1.076389 4.616118,2.147347 7.619935,2.9372l1.381894,-5.17999c-2.948258,-0.694411 -5.003034,-1.420775 -6.564859,-2.115603z"/>
   <path stroke="null" id="svg_14" fill="white" d="m49.097092,91.211301c-2.879264,0 -5.302435,-0.344804 -6.269997,-0.599177l-1.460512,5.434572c2.29426,0.646794 4.980157,1.124005 7.730509,1.124005c2.741274,0 5.427171,-0.47199 7.730509,-1.124005l-1.464869,-5.434572c-0.96738,0.259804 -3.381473,0.599177 -6.265639,0.599177z"/>
   <path stroke="null" id="svg_15" fill="white" d="m62.327034,86.836619c-1.566183,0.694828 -3.616237,1.415971 -6.564859,2.120824l1.386796,5.180407c3.008357,-0.790271 5.5559,-1.861229 7.615215,-2.937618l-2.432613,-1.129018l0,-3.234596l-0.004539,0z"/>
   <path stroke="null" id="svg_16" fill="white" d="m30.760805,34.743711c3.814507,-2.369976 13.138978,-7.587141 6.818143,-13.212597c-0.861346,-0.763705 -1.81057,-1.452916 -2.60746,-2.306487c-0.9859,0.874874 0.368578,3.048724 0.709376,3.844006c0,0 -2.10525,0.243931 -2.60746,0.243931c-3.25238,-0.016081 -6.661452,-2.232138 -4.934039,-6.4793c-1.294561,0.307671 -1.45107,1.739222 -1.847246,2.963828c-0.829391,-0.646627 -2.271201,-2.035845 -3.381655,-1.839676c0.903106,3.324337 4.703814,6.320014 7.652254,6.998761c-2.980577,1.866242 -8.509061,3.25548 -11.416104,-0.763538c-2.040831,4.543847 0.801611,6.442042 3.588821,8.822669c-10.609827,5.57241 -9.043408,11.823567 -16.004443,16.743754c0.902979,0.487863 4.929409,-0.493084 5.288781,-0.551352c-1.511078,2.253441 -2.216114,3.207864 -2.658226,4.305346c-0.423828,1.028354 -0.612892,2.189743 -1.031927,4.692336c-0.327126,1.977765 -0.926074,3.949891 -3.017598,5.259769c0.820022,1.707101 2.639706,0.370909 3.39983,0.143059c-0.101277,0.180025 -0.359372,2.23736 -1.041078,3.228748c3.574931,-0.265025 1.92098,-8.939205 5.496147,-6.850126c1.008832,0.583305 1.312881,1.951242 0.847674,3.069817c-2.349619,5.577631 2.989928,10.492596 2.699587,15.381456c1.312881,-0.01086 2.671916,-0.053256 3.528905,-2.094509c0.447014,1.018121 1.13787,2.449755 1.524968,3.828134l1.068875,-2.094301c0.658538,3.467458 3.468806,6.670101 7.265157,6.956219c-1.81057,-3.297876 0.359318,-7.799119 -4.040374,-12.586897c0.548146,-0.509165 1.815109,-1.489902 2.266481,-2.158207c-5.399209,0.732003 -11.033582,-4.183171 -8.476561,-6.515973c1.672217,-1.521856 2.404652,1.638182 4.984696,1.107924l-1.00914,-1.00204c0.354779,-0.402863 0.760214,-0.927691 1.179449,-1.325332c-1.096473,-0.153919 -2.29426,-0.959853 -2.29426,-0.959853l0.65418,-1.245762c-6.325229,-0.01086 -6.486641,-5.578049 -3.915639,-5.800678c1.206683,-0.100872 2.768509,2.460198 6.661452,1.924718c-0.497671,-0.689398 -0.695577,-1.733834 -0.930704,-2.502593c0.939782,-0.100663 2.045697,-0.090012 2.934641,-0.588317c-1.902624,-0.281106 -2.381775,-1.01833 -3.966477,-2.396709l1.838168,-0.774189c-2.667377,-1.532298 -2.506147,-4.199252 -2.589122,-6.977312c1.395875,0.92247 3.036136,2.353895 4.786789,1.691229c0.414332,-0.158931 0.681596,-0.381769 0.690856,-0.880074c-2.496887,-1.150738 -4.100109,-5.57784 1.884285,-9.299881zm-4.556201,0.434816c-3.340258,4.108822 -1.893545,6.569229 -1.220846,7.327337c-1.244086,-0.30742 -3.100592,-2.131266 -2.676818,-3.896844c-0.396176,0.545922 -0.80143,1.139878 -1.216125,1.749497c-0.829391,1.272703 -1.570904,2.518674 -2.229804,3.727471c-1.013625,3.467667 0.84319,7.04644 4.003335,8.631576c-3.510385,-0.593747 -5.086009,-4.188392 -5.076622,-6.479007c-1.677047,3.647692 -2.478531,6.97773 -2.404942,9.771662c0.032246,1.039214 0.110664,2.009509 0.230443,2.926758c0.806059,1.760148 2.100657,2.407151 4.408716,2.730443c-2.096136,0.153919 -3.206481,0.042604 -4.118611,-1.060099c1.428084,7.067533 8.108147,13.186074 10.826362,18.42454c-2.722754,-4.072065 -8.356909,-10.137768 -10.328691,-14.522266c-0.152025,1.585136 0.216499,5.64655 1.930022,8.143922c-2.524394,-2.857839 -2.722609,-7.184487 -2.556622,-9.718824c-0.640327,-1.823846 -1.045889,-3.85967 -1.101212,-6.177017c-0.050511,-2.131266 0.078418,-3.981635 0.359372,-5.64112c-1.593835,2.608478 -3.8975,3.615947 -5.030686,7.587141c0.221056,-5.121722 3.542704,-5.201501 6.030385,-11.420705c0.962877,-2.719792 2.363582,-5.068884 3.911426,-7.7302c-1.967134,0.742027 -3.441408,1.272494 -5.717185,4.140776c1.61693,-4.400579 10.959885,-9.347498 15.239744,-14.135485c-1.285483,0.313059 -6.53254,0.466769 -8.711688,-1.208797c3.947957,1.230099 12.733543,-0.174804 16.05056,-2.783281c-2.289721,3.790751 -7.274417,4.008159 -13.341787,11.547892c0.774013,-0.710492 1.806031,-1.426413 2.741274,-1.935369z"/>
   <path stroke="null" id="svg_17" fill="white" d="m89.859063,58.205809c-0.419234,-2.502593 -0.603523,-3.663564 -1.027297,-4.692336c-0.437573,-1.097691 -1.14713,-2.051905 -2.662838,-4.305137c0.359318,0.058059 4.394971,1.039214 5.293357,0.551352c-6.961035,-4.920604 -5.39467,-11.171552 -16.009345,-16.743962c2.787392,-2.380627 5.629979,-4.278613 3.589003,-8.82789c-2.907043,4.024031 -8.435346,2.63521 -11.416104,0.76333c2.953161,-0.678747 6.74933,-3.668994 7.652254,-6.998635c-1.114811,-0.196168 -2.556985,1.19305 -3.386013,1.834685c-0.396539,-1.224878 -0.548509,-2.656429 -1.842889,-2.969362c1.727595,4.252341 -1.686198,6.468607 -4.943299,6.484688c-0.497489,0 -2.598382,-0.24414 -2.598382,-0.24414c0.336259,-0.795074 1.690737,-2.969049 0.700298,-3.843923c-0.79689,0.858834 -1.736854,1.542782 -2.602921,2.306404c-6.325374,5.625457 3.008357,10.847842 6.822864,13.212806c5.975316,3.721832 4.385893,8.149143 1.884285,9.2838c0.00926,0.498514 0.276342,0.720934 0.695577,0.880074c1.741575,0.668096 3.390733,-0.76333 4.777348,-1.691438c-0.078073,2.778478 0.087696,5.450653 -2.579681,6.97773l1.833629,0.773981c-1.585066,1.378588 -2.059496,2.115394 -3.961938,2.3965c0.884405,0.498305 1.999398,0.487863 2.93446,0.588526c-0.239485,0.768968 -0.446832,1.813404 -0.935062,2.502593c3.897482,0.530049 5.463665,-2.025382 6.661452,-1.924509c2.561524,0.222629 2.409554,5.789818 -3.920541,5.80026l0.65418,1.24618c0,0 -1.197787,0.805725 -2.298799,0.959644c0.419234,0.392211 0.829209,0.92247 1.183988,1.325541l-1.008777,1.00204c2.575142,0.530258 3.312116,-2.62978 4.984696,-1.108133c2.556622,2.332802 -3.072994,7.247767 -8.476924,6.516182c0.456092,0.667887 1.722874,1.654264 2.271201,2.16322c-4.40405,4.782348 -2.239064,9.28923 -4.040193,12.592327c3.786909,-0.291548 6.597178,-3.493982 7.265157,-6.961649l1.068694,2.094509c0.382377,-1.378588 1.082674,-2.810222 1.520428,-3.828134c0.852268,2.041254 2.220363,2.083649 3.538164,2.094092c-0.299583,-4.888233 5.035171,-9.803407 2.694975,-15.381038c-0.470073,-1.113563 -0.165951,-2.4815 0.84319,-3.070026c3.583919,-2.088871 1.920962,6.58531 5.500704,6.850334c-0.686499,-0.991597 -0.939782,-3.048724 -1.036557,-3.228748c0.755494,0.22785 2.570603,1.564042 3.390733,-0.148698c-2.077834,-1.282937 -2.676818,-3.25548 -3.013077,-5.233036zm-6.693771,-7.094266c0.280882,1.664915 0.423774,3.510063 0.359136,5.641538c-0.059917,2.31693 -0.460631,4.352754 -1.101012,6.176808c0.16123,2.534338 -0.032137,6.860777 -2.556985,9.718616c1.709256,-2.502593 2.082373,-6.558369 1.930403,-8.143922c-1.980878,4.384916 -7.610494,10.45041 -10.337969,14.522266c2.722573,-5.238466 9.402726,-11.362228 10.83564,-18.42454c-0.921444,1.097691 -2.022457,1.214018 -4.12335,1.060308c2.303701,-0.323293 3.598081,-0.970086 4.404231,-2.730234c0.119833,-0.912027 0.198269,-1.887544 0.230588,-2.926758c0.078073,-2.79435 -0.727896,-6.124179 -2.405015,-9.771871c0.013981,2.290615 -1.561825,5.88526 -5.076931,6.479007c3.151067,-1.590357 5.012475,-5.169339 4.003698,-8.631785c-0.654362,-1.208797 -1.391335,-2.459989 -2.229804,-3.727053c-0.414695,-0.609828 -0.820131,-1.203575 -1.221027,-1.749706c0.423774,1.765369 -1.432732,3.589215 -2.676637,3.897053c0.677239,-0.758526 2.119231,-3.218515 -1.216125,-7.327755c0.935243,0.509165 1.967261,1.224878 2.745632,1.924927c-6.067188,-7.539524 -11.047345,-7.75192 -13.346326,-11.547892c3.321738,2.608478 12.107324,4.01881 16.050742,2.78349c-2.174608,1.675566 -7.426568,1.521647 -8.711688,1.208797c4.279677,4.787569 13.631928,9.734697 15.244229,14.135276c-2.27574,-2.868281 -3.75459,-3.398748 -5.712591,-4.140984c1.552384,2.666954 2.943719,5.010407 3.906561,7.730408c2.492529,6.219413 5.818807,6.293553 6.035233,11.420705c-1.133149,-3.960751 -3.432312,-4.968012 -5.030632,-7.576698z"/>
   <path stroke="null" id="svg_18" fill="white" d="m53.989371,42.1667c-0.999699,1.580123 -2.819347,2.640431 -4.888103,2.640431c-0.48369,0 -0.948861,-0.063698 -1.391154,-0.15914c0.124372,0.652015 0.414695,1.325541 1.018219,1.903625c-0.244205,1.892765 0.46517,3.663564 2.229804,4.124694c0.188828,0.965074 0.704655,1.691438 1.580163,2.036033l-1.230287,1.632961c-0.474249,0.6257 -1.091753,0.827445 -1.589242,0.752887l-5.491445,-0.715713c0.239485,-0.699632 -0.396176,-1.510996 -2.137751,-1.166192l2.15627,-6.945777l-1.313262,-3.218515l-2.492166,2.449546l-0.184289,7.284941l-1.073596,-0.598968c-1.382076,-0.689189 -1.791869,2.211045 -0.47443,2.221487l0.529808,0.005221c-0.036858,0.297187 0.046299,0.625909 0.253284,0.731794c-0.248745,0.116536 -0.322279,0.652224 -0.013617,0.843108c-0.3132,0.174804 -0.359499,0.726364 -0.106216,0.964865c-0.271803,0.535688 -0.322279,1.696868 0.640563,1.988416c0.792351,0.238501 1.28984,-0.737015 1.451252,-1.304448l8.545737,3.043502c1.202507,0.397641 2.068574,0.174804 3.072994,-0.837887l2.229804,-2.24279c-0.281245,1.4686 0.175029,2.78892 1.14713,3.229166c0,0 -0.152152,1.346634 -0.092235,1.903416l2.990019,0.005221l4.708172,0l0,-16.171309c0,-1.505775 0.373298,-3.01134 0.83393,-4.400579l-5.542101,0l-5.367254,0z"/>
   <path stroke="null" id="svg_19" fill="white" d="m41.191554,69.37757l0.165951,0.238501c0.230225,0.328722 0.368396,0.249152 0.631121,0.07414l0.386734,-0.238501c0.244387,-0.212187 1.83381,0.487654 1.921325,-1.033993c0.175029,1.134656 -0.999699,3.525726 -0.290323,4.862127l0.953763,1.797323l-3.114391,0.052838c-0.340798,0 -0.520548,0.23871 -0.612602,0.450688l-0.81541,1.94602c-0.211887,0.514177 -0.198269,1.044435 0.068995,1.399681l0.552685,0.715713c0,0 0.451553,-0.439828 0.598984,-1.017912l-0.244024,-0.291548c-0.202809,-0.222838 -0.202809,-0.435025 -0.092235,-0.710492l0.50221,-1.198354c0.193367,-0.471782 0.391637,-0.572445 0.833748,-0.450688l2.520127,0.625909c0.184289,0.052838 0.483872,0.153501 0.663258,-0.201745c0.308843,-0.630922 0.852449,-0.673317 1.405134,-0.572445c1.382257,0.238501 4.574721,0.620271 5.712773,-0.912027c1.335958,2.041045 3.948139,2.041045 3.777649,3.112213l-0.552685,3.509854l0.829027,0l0.506931,-3.589424c0.055196,-0.418735 0.280882,-0.991597 -0.110755,-1.314681c-0.161048,-0.143268 -0.234946,-0.217408 -0.598984,-0.938551c-0.474249,-0.954632 -0.451372,-2.386057 -0.907464,-3.621586c0.433215,-0.588317 0.902925,-0.789853 1.313081,-0.67833c0.921263,0.259804 1.170189,2.088871 2.478549,3.578982c-0.147431,-0.663084 -0.211887,-1.389239 -0.520548,-2.020369c0,0 0.907645,0.811155 1.142409,1.760566c0.147431,0.593747 0.299401,1.028354 0.764935,1.304239c0.30848,0.127187 0.677057,-0.042604 1.045635,-0.55156c0,0 -0.861528,-1.410541 -1.492649,-2.332802c-0.866248,-1.267273 -2.022457,-2.539768 -3.598081,-2.391487c-0.497671,0.047826 -0.976459,0.307629 -1.432914,0.620688c-1.79205,-1.155959 -3.183204,0.068919 -3.736071,0.068919l-3.353876,-0.228059c-0.658719,-0.047826 -1.179267,-0.928108 -1.179267,-0.928108c-0.082975,-3.265923 -2.363436,-4.56494 -3.151067,-4.56494c0,0 0.073534,-0.588526 -0.133814,-0.795492l-0.700298,1.013109l-1.94402,-0.816794l1.524786,1.437064l-1.653879,2.210836c-0.170308,0.217199 -0.14725,0.503735 -0.064456,0.620479z"/>
   <path stroke="null" id="svg_20" fill="white" d="m38.99425,73.963186c-0.470073,0.418944 -0.446832,1.00204 -0.165769,1.654264l0.281063,0.604607l0.732435,-0.641782l-0.165769,-0.413514c-0.119833,-0.291757 -0.115294,-0.588526 0.092054,-0.773981l1.050356,-0.911819c0.294862,-0.249361 0.386916,-0.275885 0.700479,-0.222838l2.215824,0.535479c0,0 -0.336259,-0.562003 -0.447014,-1.134656l-2.086912,-0.318071c-0.294862,-0.042604 -0.474612,0.100872 -0.732435,0.328722l-1.474311,1.293588z"/>
   <path stroke="null" id="svg_21" fill="white" d="m53.163975,81.535081l0.838469,0l1.345399,-3.812262c0.045936,-0.132617 0.110392,-0.190885 0.161048,-0.302199c-0.603523,-0.275467 -0.958302,-0.46656 -1.46033,-0.800713c0.336259,0.519607 0.598803,0.742445 0.460631,1.224878l-1.345218,3.690296z"/>
   <path stroke="null" id="svg_22" fill="white" d="m53.878253,29.972223l1.552747,-10.269884l-5.883081,2.300974l0,10.588247l4.330334,-2.619338zm-3.335356,-6.929696l3.902203,-1.654472c0,0 -0.760214,0.710701 -1.667678,1.426413c-0.806332,0.641573 -2.234525,1.325541 -2.234525,1.325541l0,-1.097482zm0,2.486721l3.570483,-1.4686c0,0 -0.428494,0.519607 -1.331419,1.23532c-0.80615,0.636143 -2.234343,1.320111 -2.234343,1.320111l0,-1.086831l-0.004721,0zm0,2.640431l3.141989,-1.389239c0,0 0,0.440246 -0.907464,1.150529c-0.806332,0.641573 -2.234525,1.325541 -2.234525,1.325541l0,-1.086831z"/>
   <path stroke="null" id="svg_23" fill="white" d="m43.412099,39.054905l0.128911,0.238501l1.211586,0l0.013981,0.243722c0.013799,0.233489 0.059917,0.47199 0.128911,0.715713c0.188828,0.662875 0.561945,1.357494 1.160929,1.919288c0.695577,0.647003 1.700178,1.113772 3.036136,1.113772c2.897783,0 4.206143,-2.158207 4.330516,-3.748773l0.009078,-0.243722l1.216306,0l0.129093,-0.238501c1.142409,-2.057544 2.538284,-4.34252 4.159844,-4.671243l-4.422569,-2.953281l-5.422268,3.393527l-5.427171,-3.393527l-4.41803,2.953281c1.621742,0.323293 3.017616,2.613699 4.164746,4.671243z"/>
   <path stroke="null" id="svg_24" fill="white" d="m48.636461,32.591561l0,-10.588247l-5.874003,-2.300974l1.543306,10.269884l4.330697,2.619338zm-0.990621,-3.324399c0,0 -1.428012,-0.689398 -2.234343,-1.325541c-0.907645,-0.710492 -0.907645,-1.155959 -0.907645,-1.155959l3.146528,1.389239l0,1.092261l-0.004539,0zm0,-6.224634l0,1.097482c0,0 -1.428012,-0.683968 -2.234343,-1.325541c-0.912184,-0.715713 -1.677119,-1.426413 -1.677119,-1.426413l3.911463,1.654472zm0,2.486721l0,1.092052c0,0 -1.428012,-0.683968 -2.234343,-1.320111c-0.912184,-0.715713 -1.335958,-1.23532 -1.335958,-1.23532l3.570301,1.463379z"/>
   <path stroke="null" id="svg_25" fill="white" d="m49.096547,15.174636c-3.358415,0 -5.87836,1.267211 -6.426688,2.751599l6.426688,2.921495l6.417428,-2.921495c-0.543607,-1.484389 -3.059013,-2.751599 -6.417428,-2.751599z"/>
   <path stroke="null" id="svg_26" fill="white" d="m49.096184,10.933114c2.47401,0 4.952559,0.864077 6.620237,1.982986c0.271803,-1.033972 0.562126,-1.77105 0.958302,-2.614096l-1.520247,0.270601l-1.230105,-3.022221l-2.298799,1.405007l-2.529387,-2.878891l-2.533563,2.878891l-2.29426,-1.405007l-1.239365,3.022221l-1.520428,-0.270601c0.396176,0.843046 0.68196,1.580123 0.962841,2.614096c1.67258,-1.11891 4.141688,-1.982986 6.624776,-1.982986z"/>
   <path stroke="null" id="svg_27" fill="white" d="m91.019992,34.20865c0.829027,-0.121966 1.497006,-0.440246 2.312417,-1.140295c-1.755192,-0.53527 -5.431528,-2.067568 -8.568796,-1.378379c-1.036738,0.15914 -1.612482,0.641573 -1.244086,0.917249c1.686198,1.288367 3.768571,4.273601 5.284279,7.756932c1.331419,-1.903416 0.774013,-4.400788 0.493132,-5.116501c2.653396,1.839927 3.348973,2.736082 4.579079,2.386057c-0.658719,-1.16118 -1.584521,-2.205824 -2.856023,-3.425063z"/>
   <path stroke="null" id="svg_28" fill="white" d="m9.388564,40.359561c1.515653,-3.483539 3.598008,-6.468565 5.288781,-7.756932c0.377656,-0.275885 -0.207348,-0.758317 -1.234699,-0.917457c-3.141952,-0.683968 -6.82753,0.843108 -8.582777,1.378797c0.824579,0.699632 1.478868,1.017912 2.317391,1.139878c-1.276078,1.224878 -2.20217,2.263883 -2.860998,3.425063c1.239256,0.350025 1.93033,-0.54613 4.579424,-2.385849c-0.271803,0.721143 -0.833966,3.213085 0.492877,5.116501z"/>
   <path stroke="null" id="svg_29" fill="black" d="m27.784586,72.691527c1.220846,-1.113772 2.234525,-1.670345 2.183687,-4.369252c-1.833629,1.08161 -7.034932,1.023551 -9.209359,-2.422814c-0.612602,-0.980737 0.041578,-1.474239 0.635842,-0.700049c1.487928,1.940799 4.243001,1.060516 5.247421,0.503944c-0.161412,-0.668305 -0.608244,-1.537937 -0.981542,-1.908846c0.378019,-0.424165 1.442174,-1.060516 1.6586,-2.152568c-0.566666,-0.355246 -2.773411,-0.609828 -2.773411,-0.609828c0.354779,-0.39242 0.797072,-0.938551 0.529808,-2.396291c-2.252863,0.795074 -5.040073,-0.286536 -5.671194,-1.24618c-0.621861,-0.943772 0.013981,-1.829276 0.539068,-1.203575c1.124071,1.357286 6.661815,2.910886 8.721129,0.551352c-0.764935,-0.243722 -1.607761,-1.028354 -1.759913,-1.516217c1.907344,-0.222838 3.427591,-1.516426 3.551963,-3.128502c-1.055076,0 -3.045396,-0.089803 -3.726992,-0.673108c0.912184,-0.387199 1.492467,-0.768968 1.78279,-1.94602c-3.487508,-0.243931 -3.76385,-3.223527 -3.782188,-3.716611c2.271201,1.505775 6.269997,0.83747 5.23344,-2.87392c-1.889006,-0.116536 -3.79163,-3.631611 1.400414,-6.860568c4.722152,-2.942839 10.089225,-6.113319 9.614794,-11.335914c-0.308661,-3.340272 -5.086009,-5.62034 -5.694253,-7.311423c-1.994677,1.092073 -2.395755,2.359263 -1.49737,4.485329c0,0 -4.445628,0.509165 -4.795686,-2.64041c-0.15197,-1.410249 0.667979,-2.73059 1.548026,-3.743239c-0.497671,0 -3.847007,-1.033972 -4.855784,2.104993c-1.875026,-1.473884 -3.482969,-1.421046 -4.745211,0.137796c2.017918,1.378421 3.266179,6.107973 6.601898,7.502433c-2.372696,1.479251 -6.210262,0.858981 -8.449326,-3.690296c-2.119158,3.674424 -3.339895,7.311674 1.207047,11.197867c-8.269576,4.332078 -8.209678,12.613629 -15.405713,16.558299c0.727877,2.25365 2.266608,2.25365 4.229202,1.903625c-3.109725,4.64994 -0.46065,9.51708 -5.385501,11.505287c0.46065,1.898404 1.386724,3.414621 3.201851,2.857839c-0.515954,0.928108 -0.856807,0.906806 -1.658527,1.924718c2.690454,1.951033 5.883172,0.540909 6.606474,-5.72069c0.12893,-1.118993 1.464906,-0.418944 1.004256,0.67833c-3.068346,7.301231 4.689852,12.794071 1.944057,18.149073c2.41865,-0.116536 4.265933,-0.333944 5.270534,-1.272494c0.492768,1.124214 0.792351,2.237568 0.681596,3.33505c1.33614,-0.31285 1.824369,-1.219448 1.916422,-2.269313c0.875327,2.94263 4.008237,6.086796 9.020531,6.086796c-2.658117,-4.368835 -0.184107,-8.795937 -3.938879,-13.7746zm-4.947838,5.381525l-1.068694,2.094092c-0.382558,-1.378379 -1.078135,-2.810013 -1.525149,-3.827925c-0.861346,2.041045 -2.220381,2.083649 -3.528923,2.094301c0.290341,-4.888442 -5.049206,-9.803407 -2.699605,-15.381456c0.470018,-1.113354 0.161176,-2.481291 -0.847656,-3.069817c-3.579507,-2.088871 -1.921216,6.585101 -5.496147,6.850126c0.681941,-0.99118 0.939801,-3.048515 1.041314,-3.228748c-0.760359,0.22785 -2.580062,1.564042 -3.400066,-0.143059c2.091506,-1.309669 2.690454,-3.282004 3.017598,-5.259769c0.414695,-2.502593 0.608081,-3.663564 1.027351,-4.692336c0.442348,-1.097482 1.147148,-2.051905 2.658226,-4.305137c-0.359372,0.058059 -4.381227,1.039214 -5.2888,0.551352c6.961053,-4.920395 5.394634,-11.171552 16.004515,-16.743962c-2.782671,-2.380627 -5.625131,-4.278613 -3.58864,-8.82246c2.906862,4.01881 8.430625,2.62978 11.415741,0.76333c-2.948258,-0.678747 -6.748966,-3.668785 -7.647533,-6.99874c1.110454,-0.196168 2.552446,1.19305 3.376934,1.839948c0.400896,-1.230141 0.557587,-2.656429 1.851967,-2.963828c-1.727595,4.246869 1.681658,6.462926 4.934221,6.479007c0.506567,0 2.60746,-0.243931 2.60746,-0.243931c-0.336259,-0.795283 -1.695276,-2.969112 -0.709557,-3.843986c0.797254,0.859106 1.746114,1.543053 2.607823,2.306467c6.325193,5.630678 -3.003999,10.847842 -6.818506,13.217818c-5.984395,3.72225 -4.381172,8.154782 -1.884104,9.284217c-0.009441,0.498305 -0.276342,0.720934 -0.691038,0.880074c-1.750653,0.667887 -3.390733,-0.768968 -4.786608,-1.691229c0.082794,2.77806 -0.082975,5.450236 2.588941,6.977312l-1.838168,0.768968c1.580345,1.3836 2.064035,2.115394 3.966659,2.401721c-0.889126,0.498305 -1.990138,0.487863 -2.934823,0.588526c0.239666,0.76876 0.433215,1.813195 0.930704,2.502593c-3.892943,0.530258 -5.454587,-2.02559 -6.661633,-1.924927c-2.570603,0.222838 -2.409427,5.790027 3.91582,5.800678l-0.653998,1.245971c0,0 1.197605,0.805934 2.298799,0.959435c-0.419234,0.392629 -0.824488,0.922887 -1.179267,1.32575l1.008777,1.00204c-2.584401,0.530258 -3.312297,-2.62978 -4.989235,-1.108133c-2.556804,2.333011 3.077351,7.247976 8.476924,6.516182c-0.451553,0.668305 -1.723055,1.654264 -2.266662,2.163428c4.399511,4.782348 2.229623,9.289021 4.040011,12.592327c-3.795987,-0.286327 -6.606074,-3.494191 -7.264975,-6.956219z" clip-rule="evenodd" fill-rule="evenodd"/>
   <path stroke="null" id="svg_30" fill="black" d="m15.894686,60.607321c0.916941,1.097482 2.022475,1.214018 4.11872,1.060516c-2.308168,-0.323501 -3.602765,-0.970295 -4.408825,-2.730652c-0.115221,-0.911819 -0.193639,-1.887544 -0.225867,-2.926758c-0.073607,-2.794141 0.727877,-6.12397 2.404942,-9.771871c-0.009151,2.285394 1.561771,5.880039 5.076876,6.479007c-3.160508,-1.590357 -5.016978,-5.16913 -4.003516,-8.631576c0.658719,-1.208797 1.400595,-2.459989 2.229804,-3.727262c0.414695,-0.609828 0.819949,-1.203575 1.216125,-1.749706c-0.423774,1.765578 1.432914,3.589424 2.676818,3.897053c-0.6727,-0.758317 -2.119231,-3.213085 1.220664,-7.322116c-0.930341,0.508956 -1.96254,1.224669 -2.74545,1.924718c6.062468,-7.539733 11.051884,-7.751502 13.341605,-11.547892c-3.317018,2.608478 -12.102421,4.01881 -16.050742,2.783281c2.179148,1.675566 7.426568,1.521856 8.71187,1.209214c-4.27532,4.787778 -13.618111,9.734488 -15.239853,14.135067c2.275777,-2.873502 3.750051,-3.398539 5.721833,-4.135554c-1.552565,2.666954 -2.948386,5.010407 -3.911263,7.7302c-2.487682,6.214192 -5.813905,6.293762 -6.030621,11.415484c1.133422,-3.971193 3.436851,-4.978663 5.030922,-7.587141c-0.28119,1.664706 -0.414695,3.509854 -0.36393,5.641538c0.055323,2.31693 0.460631,4.352754 1.100958,6.176599c-0.161176,2.534338 0.032228,6.860985 2.556912,9.718824c-1.713814,-2.497372 -2.082337,-6.558786 -1.930312,-8.143922c1.976248,4.384498 7.610766,10.450201 10.333521,14.522266c-2.722754,-5.233245 -9.398296,-11.351786 -10.831191,-18.419319z" clip-rule="evenodd" fill-rule="evenodd"/>
   <path stroke="null" id="svg_31" fill="black" d="m78.258306,39.55321c1.958001,0.742236 3.436851,1.267273 5.712591,4.140776c-1.6123,-4.400579 -10.96909,-9.347498 -15.244229,-14.135067c1.28512,0.30742 6.537261,0.466352 8.711688,-1.209214c-3.943781,1.235529 -12.729003,-0.174804 -16.05056,-2.78349c2.29426,3.79639 7.278956,4.008368 13.346144,11.5481c-0.778371,-0.700049 -1.810388,-1.415971 -2.745632,-1.924718c3.335356,4.109031 1.893364,6.569229 1.216306,7.327337c1.243723,-0.307629 3.100229,-2.131475 2.676455,-3.897053c0.400896,0.54613 0.806332,1.139878 1.221027,1.749706c0.833748,1.272494 1.570904,2.518465 2.229804,3.727262c1.013316,3.467667 -0.84791,7.046649 -3.998977,8.631994c3.515287,-0.594165 5.09073,-4.194031 5.07221,-6.479007c1.681658,3.647692 2.483088,6.977312 2.409554,9.771453c-0.032319,1.039214 -0.110573,2.009509 -0.230406,2.926758c-0.810871,1.760357 -2.105432,2.407151 -4.408952,2.730652c2.100893,0.14828 3.201905,0.036966 4.12335,-1.060516c-1.432914,7.067533 -8.108346,13.186074 -10.83564,18.42454c2.727293,-4.071857 8.352552,-10.13735 10.337969,-14.522266c0.152152,1.585345 -0.216426,5.646759 -1.930403,8.143922c2.524848,-2.85763 2.718215,-7.184069 2.556985,-9.718407c0.635842,-1.824055 1.036557,-3.860088 1.101012,-6.177017c0.059917,-2.131684 -0.082794,-3.981844 -0.359318,-5.641538c1.598683,2.608895 3.897482,3.616156 5.035534,7.587349c-0.216607,-5.127152 -3.542704,-5.206513 -6.035233,-11.420496c-0.967562,-2.735873 -2.358716,-5.079326 -3.911281,-7.74106z" clip-rule="evenodd" fill-rule="evenodd"/>
   <path stroke="null" id="svg_32" fill="black" d="m89.076334,51.180671c1.957819,0.355037 3.496586,0.355037 4.229021,-1.898195c-7.196162,-3.94467 -7.136245,-12.221209 -15.405459,-16.558508c4.546942,-3.880972 3.321557,-7.523443 1.206865,-11.197867c-2.234343,4.549277 -6.08589,5.169547 -8.449145,3.690505c3.326096,-1.394669 4.583981,-6.124179 6.601898,-7.502621c-1.262424,-1.558821 -2.874725,-1.61168 -4.749932,-0.137775c-1.013498,-3.138966 -4.358295,-2.105014 -4.860142,-2.105014c0.875327,1.007407 1.704354,2.327748 1.547845,3.743239c-0.3457,3.149554 -4.791329,2.640389 -4.791329,2.640389c0.898385,-2.126024 0.497671,-3.393235 -1.497188,-4.485579c-0.608062,1.691354 -5.380871,3.971402 -5.694435,7.311674c-0.478788,5.222594 4.897363,8.393075 9.614976,11.335914c5.191862,3.228957 3.289238,6.749462 1.405134,6.860568c-1.045998,3.71139 2.952979,4.379695 5.228901,2.87392c-0.00926,0.493084 -0.299583,3.472679 -3.786909,3.71682c0.294681,1.176843 0.870788,1.558821 1.78279,1.945812c-0.681778,0.588526 -2.672098,0.673108 -3.722272,0.673108c0.124372,1.612077 1.649158,2.911095 3.556321,3.128502c-0.15197,0.487863 -0.999699,1.272494 -1.759732,1.516217c2.059314,2.359534 7.596695,0.805934 8.721129,-0.551352c0.515827,-0.6257 1.146767,0.259804 0.529626,1.203575c-0.635842,0.965074 -3.418331,2.046475 -5.675915,1.24618c-0.257823,1.452519 0.175211,2.003871 0.529989,2.396291c0,0 -2.206746,0.254582 -2.77795,0.609828c0.216426,1.092052 1.28512,1.723182 1.658418,2.152568c-0.377838,0.370909 -0.824851,1.240541 -0.9859,1.908846c1.013679,0.562003 3.768571,1.436856 5.247421,-0.503944c0.598984,-0.768551 1.252983,-0.280688 0.640199,0.700049c-2.174427,3.446365 -7.37573,3.499203 -9.213898,2.423023c-0.050657,2.698699 0.962841,3.255272 2.183687,4.368835c-3.759129,4.978454 -1.276041,9.405974 -3.93434,13.763949c5.007936,0 8.140483,-3.143957 9.01581,-6.086587c0.101495,1.044644 0.580646,1.956672 1.912065,2.269313c-0.101495,-1.097691 0.193367,-2.211045 0.681596,-3.334842c1.013679,0.938551 2.861107,1.15575 5.279739,1.272494c-2.741274,-5.355211 5.017014,-10.84826 1.939481,-18.149073c-0.456092,-1.097691 0.879866,-1.797323 1.008777,-0.678747c0.718817,6.262017 3.916002,7.672141 6.611158,5.721108c-0.810871,-1.018121 -1.147312,-0.997027 -1.663139,-1.924718c1.815109,0.556782 2.736553,-0.959853 3.201724,-2.857839c-4.90172,-1.982986 -2.2525,-6.850334 -5.366891,-11.500066zm0.414514,12.427966c0.096593,0.180233 0.35024,2.23736 1.036738,3.228957c-3.579743,-0.265025 -1.921325,-8.939414 -5.500704,-6.850334c-1.00914,0.583305 -1.308542,1.951242 -0.84319,3.070026c2.340196,5.577631 -2.994558,10.492596 -2.694975,15.381038c-1.317801,-0.010442 -2.685897,-0.052838 -3.538346,-2.094092c-0.437573,1.017912 -1.142409,2.449338 -1.524786,3.828134l-1.068694,-2.094509c-0.66344,3.467667 -3.473709,6.669892 -7.260799,6.961649c1.80131,-3.297876 -0.364039,-7.804757 4.040374,-12.592327c-0.552867,-0.508956 -1.819648,-1.495332 -2.27574,-2.16322c5.40393,0.731585 11.033546,-4.18338 8.476561,-6.516391c-1.672217,-1.521438 -2.409191,1.638391 -4.984696,1.108133l1.00914,-1.001831c-0.354779,-0.40328 -0.764935,-0.928108 -1.183988,-1.32575c1.101012,-0.15371 2.298799,-0.959644 2.298799,-0.959644l-0.65418,-1.245971c6.325193,-0.010442 6.477345,-5.577631 3.920541,-5.800469c-1.202507,-0.100663 -2.768872,2.459989 -6.661815,1.924718c0.493132,-0.689189 0.695577,-1.733625 0.935243,-2.502593c-0.939782,-0.100663 -2.050055,-0.090221 -2.934641,-0.588526c1.902805,-0.281106 2.381956,-1.017912 3.961938,-2.396709l-1.833266,-0.773772c2.667195,-1.532298 2.496705,-4.199252 2.579681,-6.97773c-1.391335,0.922678 -3.040675,2.354313 -4.777348,1.691438c-0.414695,-0.15914 -0.686499,-0.381769 -0.695577,-0.880074c2.501608,-1.134865 4.095389,-5.561968 -1.884285,-9.284009c-3.810149,-2.369976 -13.143699,-7.587141 -6.822864,-13.212597c0.865885,-0.763664 1.805849,-1.452874 2.5982,-2.306446c0.990621,0.874874 -0.363857,3.048682 -0.700116,3.843965c0,0 2.10053,0.243722 2.598382,0.243722c3.25692,-0.015663 6.670712,-2.23193 4.943117,-6.484312c1.294561,0.307671 1.446531,1.744485 1.842707,2.969091c0.829209,-0.646606 2.266662,-2.030582 3.386194,-1.834413c-0.907645,3.324253 -4.699093,6.31993 -7.652254,6.998677c2.98094,1.866242 8.509061,3.25548 11.416104,-0.76333c2.036256,4.543638 -0.801611,6.442042 -3.588821,8.82246c10.614312,5.567189 9.043408,11.823567 16.008982,16.743754c-0.898204,0.487863 -4.934039,-0.492875 -5.293357,-0.551352c1.520428,2.25365 2.229804,3.207864 2.662838,4.305555c0.423774,1.028354 0.608244,2.184313 1.027297,4.692127c0.33172,1.977765 0.935243,3.949891 3.017616,5.259769c-0.81541,1.691438 -2.630519,0.355246 -3.386013,0.127187z" clip-rule="evenodd" fill-rule="evenodd"/>
   <path stroke="null" id="svg_33" fill="black" d="m38.947951,77.293016l1.515708,-1.47946l-0.230225,-0.530049c-0.165951,-0.381769 -0.078436,-0.403071 0.096593,-0.551352l0.801611,-0.683968c0.184289,-0.175221 0.377838,-0.153919 0.603523,-0.090221l2.400294,0.646794l-2.533926,0c-0.585004,0.042396 -0.755494,0.302199 -0.96738,0.800713l-0.175029,0.408084l-0.649459,1.537728c-0.221328,0.530258 -0.336622,1.23532 0.244024,2.030812l0.460631,0.630713l-0.930523,2.16865l0.783091,0l0.64492,-1.505983c0.050838,-0.052838 1.00442,-1.054878 1.207047,-2.088871c-0.276342,-0.259804 -0.46971,-0.440037 -0.317739,-0.800504l0.290141,-0.720934c0.096956,-0.238919 0.129093,-0.334361 0.405435,-0.275885l2.515407,0.625492c0.3132,0.100663 0.774013,0.259804 1.110272,-0.323293c0.345519,-0.604398 0.391637,-0.5407 1.193066,-0.450897l1.285483,0.15914c1.755192,0.190885 3.510566,-0.312641 4.192163,-0.938133c0.239666,0.625492 0.714278,1.108133 0.935243,1.595787c0.082975,0.180233 -0.055014,0.434816 -0.161048,0.752887l-1.442174,3.965972l2.225265,0l1.257885,-3.616156c0.114931,-0.344595 0.285421,-0.620479 0.414332,-0.758108l-0.723175,4.379486l2.160628,0l0.571386,-4.33166c0.124372,-0.965074 0.050475,-1.272494 -0.35024,-1.670345c-0.898385,-0.874853 -0.879866,-2.70935 -1.170189,-3.822704c0.15197,-0.100663 0.33172,-0.15371 0.543607,-0.121966c0.470073,0.047826 0.824851,1.431634 1.377536,2.322151c1.105733,1.78688 2.611999,3.759424 4.339776,0.981155c-0.165951,-0.31828 -0.345519,-0.604607 -0.557406,-0.880074l-0.483872,-0.652224c-0.280882,-0.360676 -1.61684,-2.121033 -2.174427,-2.751954c-1.266963,-1.4686 -3.210984,-1.245762 -3.984997,-0.530049c-1.755374,-1.060516 -3.607159,0.052838 -4.044732,0.010442l-3.022156,-0.212187c-0.138353,-0.010442 -0.3457,-0.063489 -0.493132,-0.333944l0.562126,-0.211978c-0.525269,-2.518465 -1.847428,-4.623208 -4.155668,-4.989314c0,0 -0.133451,-0.795283 -0.488229,-0.948993l-0.691038,0.933121c-0.193367,0.031953 -0.405435,0.100872 -0.580464,0.185663l-2.948258,-1.261843l2.211285,2.571512c0,0 -1.14713,1.871463 -1.474311,2.253232c-0.216607,0.350025 -0.198269,0.620271 0.045936,0.954214l0.428676,0.647003c0.220965,0.334152 0.46517,0.323501 0.819949,0.116745l0.48369,-0.291548c0.211887,-0.201536 0.921263,0.196106 1.225385,-0.122174c-0.193367,0.731794 -0.290141,1.436856 -0.336259,1.993637l-1.985417,-0.275676c-0.433215,-0.068919 -0.631303,0 -0.893846,0.238501l-1.695457,1.500553c-0.552685,0.487654 -0.723175,1.330762 -0.382377,2.152777l0.691038,1.659485zm16.4008,0.429386l-1.345218,3.817483l-0.83865,0l1.345399,-3.695726c0.13799,-0.477003 -0.124372,-0.699632 -0.460631,-1.219239c0.497489,0.323501 0.856807,0.53527 1.46033,0.800713c-0.050838,0.105885 -0.115294,0.164361 -0.16123,0.296769zm-12.97339,-8.265888l-0.382195,0.23328c-0.267264,0.175012 -0.400715,0.254582 -0.631121,-0.07414l-0.165951,-0.243931c-0.082794,-0.116745 -0.110392,-0.397641 0.059917,-0.620479l1.64934,-2.210836l-1.520247,-1.436856l1.934942,0.821806l0.709376,-1.017912c0.207348,0.201327 0.133814,0.789853 0.133814,0.789853c0.783091,0 3.063371,1.304239 3.151067,4.570579c0,0 0.515827,0.874644 1.174728,0.92247l3.358415,0.23328c0.557406,0 1.948741,-1.219448 3.736071,-0.068919c0.451553,-0.313059 0.935243,-0.562003 1.432914,-0.6257c1.575624,-0.132408 2.736553,1.129435 3.598081,2.40193c0.631121,0.92247 1.497188,2.332802 1.497188,2.332802c-0.373117,0.508956 -0.737155,0.678538 -1.045635,0.551352c-0.465534,-0.275676 -0.617504,-0.705062 -0.764753,-1.304239c-0.234946,-0.948993 -1.142591,-1.760357 -1.142591,-1.760357c0.308661,0.636352 0.373117,1.357494 0.520548,2.02016c-1.312899,-1.495332 -1.561825,-3.319178 -2.478549,-3.573761c-0.405254,-0.116327 -0.879866,0.085 -1.31762,0.668305c0.460813,1.23532 0.437754,2.666954 0.912366,3.62639c0.359136,0.715922 0.437573,0.779411 0.598621,0.938551c0.387097,0.31828 0.170671,0.896155 0.110755,1.315099l-0.497489,3.589424l-0.838469,0l0.552685,-3.510063c0.17049,-1.070959 -2.441691,-1.070959 -3.777649,-3.112421c-1.138052,1.532298 -4.330516,1.150738 -5.712591,0.912027c-0.557406,-0.095442 -1.101012,-0.052838 -1.405134,0.577875c-0.179568,0.355246 -0.479151,0.249361 -0.66344,0.196315l-2.520127,-0.6257c-0.442112,-0.116745 -0.63566,-0.016081 -0.829027,0.450688l-0.502391,1.198354c-0.110392,0.280897 -0.105853,0.487863 0.096774,0.715922l0.239666,0.291548c-0.14271,0.572445 -0.598803,1.012691 -0.598803,1.012691l-0.548509,-0.710492c-0.266901,-0.360676 -0.280882,-0.880283 -0.068995,-1.389239l0.81541,-1.961684c0.096774,-0.217617 0.271803,-0.450688 0.612783,-0.450688l3.114209,-0.053256l-0.9534,-1.786463c-0.709739,-1.341622 0.46971,-3.732692 0.28996,-4.862127c-0.096593,1.511205 -1.685834,0.821597 -1.934942,1.028563zm-3.381292,4.506673l1.474129,-1.293797c0.262725,-0.22785 0.437754,-0.376339 0.737337,-0.333944l2.082192,0.31828c0.115112,0.572654 0.446832,1.134656 0.446832,1.134656l-2.216005,-0.535688c-0.3132,-0.042396 -0.405254,-0.026315 -0.700116,0.217408l-1.050537,0.912027c-0.207348,0.185663 -0.216426,0.482433 -0.096593,0.774189l0.17049,0.418735l-0.732616,0.636143l-0.281063,-0.604189c-0.285421,-0.641573 -0.30394,-1.230099 0.165951,-1.643821z" clip-rule="evenodd" fill-rule="evenodd"/>
   <path stroke="null" id="svg_34" fill="black" d="m45.415673,27.93619c0.80615,0.641782 2.234525,1.32575 2.234525,1.32575l0,-1.09247l-3.146891,-1.3836c0,0 0,0.445049 0.912366,1.15032z" clip-rule="evenodd" fill-rule="evenodd"/>
   <path stroke="null" id="svg_35" fill="black" d="m47.644387,26.621509l0,-1.092052l-3.570301,-1.468809c0,0 0.423774,0.519816 1.33614,1.235529c0.80615,0.636143 2.234162,1.325332 2.234162,1.325332z" clip-rule="evenodd" fill-rule="evenodd"/>
   <path stroke="null" id="svg_36" fill="black" d="m1.203606,0.222065l0,-0.001969l-0.007018,-0.002968c0,0 0.001372,0.001275 0.003009,0.002559c0.001446,0.00115 0.004009,0.002377 0.004009,0.002377z" clip-rule="evenodd" fill-rule="evenodd"/>
   <path stroke="null" id="svg_37" fill="black" d="m58.632724,39.054487l3.998796,0c-0.165769,-0.667887 -0.787812,-1.341204 -1.953462,-1.341204c-1.105552,0 -1.768991,0.731794 -2.045334,1.341204z" clip-rule="evenodd" fill-rule="evenodd"/>
   <path stroke="null" id="svg_38" fill="black" d="m54.449639,21.388264l-3.902385,1.654264l0,1.097273c0,0 1.428375,-0.683968 2.234525,-1.325123c0.907464,-0.715922 1.667859,-1.426413 1.667859,-1.426413z" clip-rule="evenodd" fill-rule="evenodd"/>
   <path stroke="null" id="svg_39" fill="black" d="m53.689243,26.78587l-3.141989,1.388821l0,1.09247c0,0 1.428375,-0.689189 2.234525,-1.325541c0.907464,-0.710701 0.907464,-1.15575 0.907464,-1.15575z" clip-rule="evenodd" fill-rule="evenodd"/>
   <path stroke="null" id="svg_40" fill="black" d="m54.112835,24.060648l-3.570301,1.468809l0,1.092052c0,0 1.432732,-0.683968 2.234343,-1.320111c0.912184,-0.720934 1.335958,-1.24075 1.335958,-1.24075z" clip-rule="evenodd" fill-rule="evenodd"/>
   <path stroke="null" id="svg_41" fill="black" d="m37.505596,37.713283c-1.165468,0 -1.787511,0.673317 -1.953099,1.341204l4.003335,0c-0.285602,-0.609411 -0.939964,-1.341204 -2.050236,-1.341204z" clip-rule="evenodd" fill-rule="evenodd"/>
   <path stroke="null" id="svg_42" fill="black" d="m57.038943,18.439953c0,-2.587259 -3.777649,-4.904481 -7.947116,-4.904481c-4.169286,0 -7.946935,2.317222 -7.946935,4.904481l0.087515,0.636372l1.6586,10.991131l-7.87794,5.286083c-0.83865,0.567224 -1.888825,2.126045 -2.022457,3.695726l1.437453,0c0.239485,-1.569681 1.312899,-3.308527 3.326096,-3.202643c1.81983,0.111523 2.897783,1.384018 3.966659,3.202643l0.276342,0.477003l0.396176,0.715713l-11.586413,0c0.852268,1.967323 1.658418,4.056193 1.658418,6.320076l0,27.72463c0,7.131231 4.75901,10.529771 9.914196,10.529771c3.980458,0 4.519344,-0.206757 6.717011,2.32236c2.188407,-2.529116 2.727112,-2.32236 6.716829,-2.32236c5.150646,0 9.914196,-3.398539 9.914196,-10.529771l0,-27.7192c0,-2.264092 0.806332,-4.352962 1.658418,-6.320285l-11.595491,0l0.400715,-0.715713l0.276342,-0.477003c1.064155,-1.818625 2.146829,-3.091119 3.966659,-3.202643c2.004119,-0.105885 3.086611,1.632961 3.321557,3.202643l1.432914,0c-0.129093,-1.569681 -1.184169,-3.133724 -2.017918,-3.695726l-7.87794,-5.285874l1.663139,-10.991298l0.082975,-0.641635zm-14.281751,1.261948l5.878724,2.301204l0,10.588039l-4.330516,-2.619129l-1.548208,-10.270113zm1.446713,22.464799c0.774013,1.219448 2.026996,2.121033 3.510385,2.47064c0.124554,0.641573 0.428676,1.346843 1.018219,1.914067c-0.244205,1.892765 0.460631,3.658552 2.229804,4.125112c0.184289,0.965074 0.704837,1.691438 1.575624,2.035824l-1.230105,1.633379c-0.469891,0.625492 -1.082674,0.826819 -1.589242,0.752678l-5.491626,-0.715713c0.239485,-0.700049 -0.396176,-1.511205 -2.133212,-1.166401l2.160809,-6.945568l-1.31762,-3.218515l-2.496887,2.449546l-0.184289,7.28515l-1.059434,-0.599386c-1.396238,-0.689189 -1.801492,2.211045 -0.474612,2.221696l0.525087,0.005221c-0.032319,0.296978 0.046118,0.6257 0.248926,0.726364c-0.248926,0.121966 -0.322642,0.662666 -0.009441,0.853551c-0.317739,0.17 -0.359318,0.721352 -0.105853,0.959853c-0.276342,0.535479 -0.317921,1.696659 0.64492,1.988207c0.787812,0.238501 1.280762,-0.737015 1.442174,-1.304239l8.541017,3.043294c1.211586,0.39785 2.068756,0.175012 3.072994,-0.837678l2.229804,-2.24279c-0.281245,1.468809 0.17975,2.788711 1.151669,3.228957c0,0 -0.138353,1.32032 -0.096593,1.908846l-22.237945,0l0,-16.171309c0,-1.505983 -0.377838,-3.011549 -0.829027,-4.400788l10.904453,0zm9.1863,6.134622c-0.469891,1.033784 -0.423955,2.221279 0.128911,3.297667l-0.368578,0.413723c-1.603222,-0.228059 -2.234343,-2.980013 -2.234343,-2.980013c-0.032319,0.249361 -0.050475,0.487863 -0.045936,0.732003c-0.935243,-0.397641 -1.525149,-1.352273 -1.47885,-2.661733c0.354779,0.22785 0.750954,0.38699 1.174728,0.47199l0.110392,-0.805934c-1.119351,-0.222838 -1.773531,-1.028772 -2.022094,-1.982986c-0.055377,-0.00543 -0.101495,-0.021302 -0.152333,-0.026732c0.198269,0.016081 0.396357,0.037174 0.598984,0.037174c0.66344,0 1.294561,-0.116536 1.884285,-0.31828c0.465352,0.763747 1.28984,1.309878 2.119231,1.415971c-0.133632,0.635934 -0.069176,1.426204 0.285602,2.407151zm2.372696,7.274081c-0.161412,0.249361 -0.290323,0.535688 -0.373298,0.848747l-0.893665,0.943772c0.17975,-1.505983 -0.700298,-3.282004 -1.501909,-4.008577l0.948861,-1.071167l0.18901,0.222838c-0.317921,0.959644 0.304122,2.841967 1.631002,3.064387zm-4.316898,-0.471573l0.737155,-0.832666c0.746415,0.753096 1.732315,2.433674 1.423473,4.034891l-0.80143,0.84833c-0.165951,0.185663 -0.336259,0.31828 -0.51147,0.440246c0.50221,-1.426413 -0.138353,-3.621168 -0.847729,-4.4908zm-1.584884,0.705271l0.023059,0c0.267264,0.047408 0.553048,-0.005639 0.810871,-0.127396c0.562126,0.92247 0.999699,3.0222 0.327181,4.331869c-0.382377,0.010442 -0.755494,-0.068919 -1.105733,-0.185663l-0.276342,-0.095442c0.566666,-1.012691 0.488229,-2.804792 0.220965,-3.923368zm-1.856506,-0.265442l1.036557,0.148489c0.165951,0.991806 0.055377,2.704129 -0.49295,3.679645l-1.207047,-0.402863c0.529989,-0.827236 0.778734,-2.529116 0.66344,-3.425272zm-2.160446,-0.302199l1.257522,0.169582c0.124372,0.795492 -0.110755,2.48693 -0.585004,3.292864l-1.280944,-0.424165c0.51147,-0.779411 0.695759,-2.152777 0.608426,-3.038281zm-5.090911,-0.38699c-0.585004,0.217408 -0.843008,-0.270246 -0.819949,-0.683968c1.14713,-0.482641 1.6586,-0.169582 1.994859,0.074349c0.30848,0.22242 0.566666,0.858981 0.981179,1.256413c-0.069176,0.540909 -0.212068,1.32575 -0.382377,1.850578c-1.174728,-0.344804 -1.234645,-1.537519 -0.797072,-2.264092c-0.244205,-0.328722 -0.502028,-0.413514 -0.97664,-0.23328zm-0.819949,2.63521c0,0 0.35024,0.169791 0.792351,0.206757c-0.050475,0.280897 -0.239666,0.545922 -0.539068,0.471782c-0.248745,-0.063489 -0.359318,-0.413514 -0.253284,-0.678538zm-1.15639,-3.87053c-0.290323,-0.222629 -0.161412,-0.710283 0.16123,-0.710283c0.354779,0.010442 0.82467,0.471782 1.290022,0.699632c0,0 -1.221027,0.190885 -1.451252,0.010651zm1.193248,2.810222c0.253465,0.280688 1.013498,0.174804 1.013498,0.174804l0.02778,0.174804c-0.33172,0.509165 -1.253346,0.281106 -1.041277,-0.349607zm1.022758,-0.578084c-0.543607,0.249361 -1.101012,-0.090221 -0.930704,-0.493084c0.253465,0.265234 0.958302,0.132617 0.958302,0.132617l-0.027598,0.360467zm0.801611,-7.27972l-1.041277,4.363614l0.354779,-7.04101l1.612482,-1.585553l0.819949,2.073207l-2.072932,6.839683l0.548146,-4.602115c0.050657,-0.328722 -0.175211,-0.366106 -0.221147,-0.047826zm0.073716,5.291513c0,0 1.160747,-0.063698 1.487928,0.079361c0.239666,0.116745 0.078436,0.583305 -0.234946,0.530467c-0.326999,-0.047826 -1.252983,-0.609828 -1.252983,-0.609828zm1.819648,1.060308l1.262424,0.180442c0.096593,0.795074 -0.082975,2.141917 -0.534528,2.894805l-1.220846,-0.408293c0.322642,-0.885504 0.400896,-1.717753 0.49295,-2.666954zm20.376537,19.368521c0,3.372016 -1.354296,5.932877 -3.607159,7.354069l0.806332,-1.887544l-0.783273,0l-1.036738,2.417593c-1.073233,0.46656 -2.289539,0.726364 -3.634757,0.726364c-4.109369,0 -5.196764,0.190885 -6.717011,1.935369c-1.524786,-1.744485 -2.611999,-1.935369 -6.716829,-1.935369c-1.335958,0 -2.552446,-0.249152 -3.62114,-0.715922l0.02778,0l1.036375,-2.428035l-0.778552,0l-0.907645,2.126045c-0.216426,-0.116745 -0.428313,-0.243722 -0.63094,-0.381978l0.746234,-1.744067l-0.773832,0l-0.553048,1.299018c-1.759732,-1.489902 -2.796288,-3.822913 -2.796288,-6.765543l0,-10.60412l29.931415,0l0,10.60412l0.009078,0zm0.83393,-32.125209c-0.46517,1.389239 -0.838469,2.894805 -0.838469,4.400788l0,16.171309l-1.635541,0c-0.741513,-0.827236 -1.368095,-3.584412 -1.368095,-3.584412c-0.405617,0.991597 0.059917,3.001107 0.492768,3.584412l-2.105432,0c-0.520548,-0.811155 -0.971919,-3.685075 -0.971919,-3.685075c-0.631303,0.827236 -0.230225,3.059166 0.16123,3.685075l-1.400595,0c-0.087515,-1.150738 0.198269,-2.40193 0.198269,-2.40193c-0.732435,-0.15371 -1.511169,-0.599177 -1.506629,-1.532298c0.368578,0.397641 0.520548,0.39242 1.032018,0.38156l0.594263,-0.540492c-1.971618,0.07414 -2.063854,-2.417802 -0.497671,-3.584203c-1.561462,0.058059 -2.727112,-1.012691 -2.160446,-2.921537c-1.110454,-0.662666 -1.501909,-2.826094 -0.68196,-3.775087c-0.594082,-0.742236 -0.691038,-2.200394 -0.3132,-3.191783c-0.787812,0 -1.672217,-0.360467 -2.165349,-0.980737c-0.036858,0.020885 -0.082794,0.036966 -0.124372,0.052838c0.986082,-0.461339 1.819648,-1.182273 2.381775,-2.072998l10.909355,0l0,-0.00543zm-5.961336,-7.783455c-1.621742,0.323501 -3.017616,2.608478 -4.160207,4.671243l-0.128911,0.238501l-1.221027,0l-0.004539,0.243931c-0.124372,1.590566 -1.437271,3.748564 -4.330516,3.748564c-1.335958,0 -2.344917,-0.47199 -3.035773,-1.113354c-0.598984,-0.562212 -0.976822,-1.256622 -1.161111,-1.919288c-0.068995,-0.238919 -0.110573,-0.482641 -0.128911,-0.715922l-0.009078,-0.243931l-1.211949,0l-0.128911,-0.238501c-1.14713,-2.057126 -2.543005,-4.34252 -4.159844,-4.671243l4.41803,-2.953281l5.426807,3.393527l5.417911,-3.393527l4.41803,2.953281zm-5.058593,-4.41123l-4.325977,2.619129l0,-10.588039l5.878724,-2.301204l-1.552747,10.270113zm-4.781887,-9.12491l-6.426688,-2.921495c0.543607,-1.48441 3.063553,-2.75162 6.426688,-2.75162c3.358415,0 5.87364,1.267211 6.417428,2.75162l-6.417428,2.921495z" clip-rule="evenodd" fill-rule="evenodd"/>
   <path stroke="null" id="svg_43" fill="black" d="m63.378298,52.617527l0.013981,-0.811155c-2.160809,-0.058477 -2.658299,-2.990456 -2.658299,-2.990456c-0.631121,2.15779 1.018219,3.769866 2.644318,3.801611z" clip-rule="evenodd" fill-rule="evenodd"/>
   <path stroke="null" id="svg_44" fill="black" d="m60.651004,57.585539l-0.216426,-0.76876c-1.842707,0.5407 -2.796288,-2.820664 -2.796288,-2.820664c-0.589724,2.444116 1.464869,4.172729 3.012714,3.589424z" clip-rule="evenodd" fill-rule="evenodd"/>
   <path stroke="null" id="svg_45" fill="black" d="m61.931585,54.467687c-2.202025,0.40328 -3.104949,-2.54478 -3.104949,-2.54478c-0.244387,1.606647 0.658719,3.234387 2.119231,3.403969c-0.33172,2.094301 1.359017,3.17048 2.824068,2.422814l-0.212068,-0.731376c-1.271502,0.492875 -2.464568,-0.954632 -1.626281,-2.550628z" clip-rule="evenodd" fill-rule="evenodd"/>
   <path stroke="null" id="svg_46" fill="black" d="m60.61451,46.053728l0.018157,-0.811364c-2.906862,-0.689189 -2.662656,-2.990456 -2.662656,-2.990456c-0.626401,2.16865 1.022758,3.769866 2.6445,3.80182z" clip-rule="evenodd" fill-rule="evenodd"/>
   <path stroke="null" id="svg_47" fill="black" d="m42.194884,79.758852l-1.041096,2.428035l0.783273,0l1.036375,-2.428035l-0.778552,0z" clip-rule="evenodd" fill-rule="evenodd"/>
   <path stroke="null" id="svg_48" fill="black" d="m43.766333,79.758852l-1.036738,2.428035l0.787994,0l1.027297,-2.428035l-0.778552,0z" clip-rule="evenodd" fill-rule="evenodd"/>
   <path stroke="null" id="svg_49" fill="black" d="m50.059207,79.758852l-1.036557,2.428035l0.778371,0l1.041277,-2.428035l-0.783091,0z" clip-rule="evenodd" fill-rule="evenodd"/>
   <path stroke="null" id="svg_50" fill="black" d="m51.635739,79.758852l-1.045817,2.428035l0.787812,0l1.031836,-2.428035l-0.773832,0z" clip-rule="evenodd" fill-rule="evenodd"/>
   <path stroke="null" id="svg_51" fill="black" d="m48.48794,79.758852l-1.041096,2.428035l0.783273,0l1.036557,-2.428035l-0.778734,0z" clip-rule="evenodd" fill-rule="evenodd"/>
   <path stroke="null" id="svg_52" fill="black" d="m57.679506,82.186887l0.783091,0l1.036557,-2.428035l-0.783273,0l-1.036375,2.428035z" clip-rule="evenodd" fill-rule="evenodd"/>
   <path stroke="null" id="svg_53" fill="black" d="m45.340686,79.758852l-1.036738,2.428035l0.783091,0l1.036738,-2.428035l-0.783091,0z" clip-rule="evenodd" fill-rule="evenodd"/>
   <path stroke="null" id="svg_54" fill="black" d="m46.908866,79.758852l-1.036557,2.428035l0.787812,0l1.036557,-2.428035l-0.787812,0z" clip-rule="evenodd" fill-rule="evenodd"/>
   <path stroke="null" id="svg_55" fill="black" d="m43.351819,66.705186c-0.142892,0 -0.267264,0.15914 -0.267264,0.366106c0,0.201327 0.124372,0.365688 0.267264,0.365688c0.147431,0 0.276342,-0.164361 0.276342,-0.365688c-0.004539,-0.206966 -0.128911,-0.366106 -0.276342,-0.366106z" clip-rule="evenodd" fill-rule="evenodd"/>
   <path stroke="null" id="svg_56" fill="black" d="m49.095458,11.89777c3.224964,0 5.809366,1.230141 7.23302,2.55046c0,0 0.428313,-2.948039 1.870305,-5.535298l-2.5982,0.333944l-1.359198,-3.3296l-2.611999,1.564105l-2.533926,-2.894951l-2.533745,2.894951l-2.621441,-1.564105l-1.359017,3.3296l-2.598382,-0.333944c1.446531,2.587259 1.870486,5.535298 1.870486,5.535298c1.428375,-1.32032 4.017315,-2.55046 7.242098,-2.55046zm-6.06737,-1.32529l1.239365,-3.022221l2.29426,1.405007l2.533745,-2.878891l2.533926,2.878891l2.29426,-1.405007l1.225385,3.022221l1.524968,-0.270601c-0.391637,0.843046 -0.686499,1.580123 -0.958302,2.614096c-1.667678,-1.11891 -4.146227,-1.982986 -6.620237,-1.982986c-2.483088,0 -4.956916,0.864077 -6.624594,1.982986c-0.276524,-1.033972 -0.566847,-1.77105 -0.963023,-2.614096l1.520247,0.270601z" clip-rule="evenodd" fill-rule="evenodd"/>
   <path stroke="null" id="svg_57" fill="black" d="m51.750125,5.943633c0.377656,0.03707 0.713915,-0.291632 0.746052,-0.72131c0.037039,-0.43467 -0.515827,-1.590378 -0.515827,-1.590378c0,0 -0.82467,1.023175 -0.852268,1.457845c-0.036858,0.424165 0.248745,0.811239 0.622043,0.853843z" clip-rule="evenodd" fill-rule="evenodd"/>
   <path stroke="null" id="svg_58" fill="black" d="m56.006744,7.719319c0.336441,0.206673 0.746234,0.053109 0.925983,-0.333965c0.184289,-0.381832 0.064456,-1.691354 0.064456,-1.691354c0,0 -1.096473,0.567203 -1.276041,0.954277c-0.175211,0.381811 -0.045936,0.858814 0.285602,1.071042z" clip-rule="evenodd" fill-rule="evenodd"/>
   <path stroke="null" id="svg_59" fill="black" d="m46.438067,5.943633c0.382377,-0.042604 0.66344,-0.424144 0.631121,-0.853843c-0.036676,-0.43467 -0.852086,-1.457845 -0.852086,-1.457845c0,0 -0.548327,1.160971 -0.516009,1.590378c0.027598,0.429678 0.363857,0.75838 0.736974,0.72131z" clip-rule="evenodd" fill-rule="evenodd"/>
   <path stroke="null" id="svg_60" fill="black" d="m42.185988,7.719319c0.336259,-0.212229 0.460631,-0.689231 0.285421,-1.071042c-0.175029,-0.387074 -1.276041,-0.954277 -1.276041,-0.954277c0,0 -0.115112,1.309523 0.069176,1.691354c0.17049,0.387074 0.585185,0.540638 0.921444,0.333965z" clip-rule="evenodd" fill-rule="evenodd"/>
   <path stroke="null" id="svg_61" fill="black" d="m93.254698,34.653908c0.907645,-0.371327 1.607761,-1.367937 1.957819,-2.290615c-2.308059,-0.38156 -8.439885,-3.345702 -13.479958,-0.932912c1.889006,-2.062765 3.584282,-2.32779 3.745512,-5.296943c0.783091,0.647003 2.105432,1.012691 2.851847,-0.530467c-0.520548,-1.765369 -1.833629,-0.333944 -2.017918,-0.821597c-0.258186,-0.678747 1.653879,0.206966 2.063854,-2.089079c-1.48811,-0.588526 -1.930403,0.811364 -2.197486,0.487863c-0.244387,-0.30742 0.944503,-0.896155 0.069176,-2.746357c-1.548026,1.044477 -0.741876,2.216308 -1.068875,2.348716c-0.396357,0.180233 -0.082975,-1.256622 -1.796771,-1.187703c-0.17049,2.115394 1.607761,2.184313 1.31762,2.518674c-0.354779,0.408084 -0.81541,-1.214435 -2.109971,-0.39242c0.023059,1.707101 1.225385,2.645652 2.464568,2.24279c-0.202445,3.24462 -2.791749,2.640431 -4.717431,6.298774c4.081771,2.407151 5.929017,6.606194 8.440066,9.51165c0.829209,-0.67833 2.248142,-3.690087 2.248142,-3.690087c2.718034,2.423232 4.629917,0.010442 4.629917,0.010442c-0.935243,-1.102703 -0.972101,-1.940173 -2.400113,-3.440726zm-3.961938,0.588526c0.280882,0.715713 0.838287,3.212876 -0.493132,5.116501c-1.515708,-3.483539 -3.598081,-6.468774 -5.284279,-7.756932c-0.368396,-0.275885 0.202809,-0.758317 1.244086,-0.917457c3.137268,-0.683968 6.818143,0.843108 8.568796,1.378797c-0.81541,0.699632 -1.47885,1.017912 -2.312417,1.134656c1.271502,1.22989 2.201843,2.269104 2.856205,3.425063c-1.230287,0.355246 -1.925864,-0.540909 -4.57926,-2.380627z" clip-rule="evenodd" fill-rule="evenodd"/>
   <path stroke="null" id="svg_62" fill="black" d="m63.082891,89.397898l0,-3.965972c-2.662838,1.405111 -6.049032,2.544989 -10.407146,2.995677l-0.198269,1.415762c0.368578,0.058268 0.83865,0.111315 1.465233,0.15914c-1.612664,0.254374 -3.699576,0.376339 -4.841804,0.376339c-1.14713,0 -3.229503,-0.121966 -4.846706,-0.376339c0.622043,-0.047826 1.091753,-0.100872 1.460512,-0.15914l-0.198269,-1.415762c-4.358114,-0.450688 -7.748665,-1.590566 -10.406964,-2.995677l0,3.965972l-3.61188,1.707101c2.676637,1.601635 5.75417,2.905873 9.310491,3.960751l-0.423774,1.659694c2.036437,0.689189 5.293357,1.38903 8.707149,1.38903c3.413792,0 6.666354,-0.705062 8.707149,-1.38903l-0.419234,-1.659694c3.551963,-1.054878 6.638575,-2.359116 9.315393,-3.960751l-3.61188,-1.707101zm-29.655072,1.797323l2.437152,-1.129435l0,-3.228748c1.566183,0.694619 3.620958,1.415762 6.56958,2.120824l-1.382257,5.180199c-3.008175,-0.795492 -5.56516,-1.86645 -7.624475,-2.942839zm15.668184,5.97026c-2.750352,0 -5.436067,-0.47199 -7.730327,-1.124005l1.46033,-5.434781c0.967562,0.260012 3.390733,0.599177 6.269997,0.599177c2.884166,0 5.293538,-0.344595 6.265639,-0.599177l1.464869,5.434781c-2.303338,0.652015 -4.984696,1.124005 -7.730509,1.124005zm8.048611,-3.027421l-1.382257,-5.180199c2.94844,-0.699841 5.003034,-1.426204 6.569398,-2.120824l0,3.228748l2.432613,1.129435c-2.059133,1.076389 -4.60704,2.147347 -7.619754,2.942839z" clip-rule="evenodd" fill-rule="evenodd"/>
   <path stroke="null" id="svg_63" fill="black" d="m7.168491,38.084192c0,0 1.418952,3.011758 2.243531,3.690087c2.515352,-2.900026 4.367283,-7.099278 8.44446,-9.51165c-1.930349,-3.658343 -4.519289,-3.043294 -4.712929,-6.298774c1.239274,0.402863 2.43717,-0.540909 2.464823,-2.24279c-1.299173,-0.822015 -1.759804,0.811155 -2.110026,0.39242c-0.290105,-0.344804 1.483425,-0.40328 1.317693,-2.518674c-1.713868,-0.063698 -1.400686,1.367937 -1.801419,1.187703c-0.322569,-0.132408 0.483726,-1.30946 -1.06873,-2.348716c-0.870769,1.855632 0.322315,2.438937 0.073607,2.746357c-0.262435,0.323501 -0.713933,-1.070959 -2.197595,-0.487863c0.400987,2.296045 2.321949,1.410332 2.06409,2.089079c-0.184253,0.487654 -1.492794,-0.943772 -2.008767,0.821597c0.737264,1.548379 2.06409,1.182691 2.842479,0.535688c0.165987,2.974375 1.856742,3.223736 3.750051,5.291722c-5.044394,-2.41279 -11.176293,0.551352 -13.493666,0.938133c0.354797,0.917457 1.055022,1.914067 1.962576,2.274534c-1.428102,1.516635 -1.465142,2.354313 -2.400131,3.451586c0,0 1.907272,2.41279 4.629953,-0.010442zm-2.856423,-0.455909c0.658828,-1.15575 1.58492,-2.200394 2.865555,-3.425063c-0.838523,-0.121966 -1.49737,-0.440246 -2.317373,-1.139878c1.755229,-0.535688 5.440806,-2.067986 8.582777,-1.378797c1.031927,0.15914 1.612591,0.641573 1.234699,0.917457c-1.686198,1.288158 -3.773146,4.273392 -5.2888,7.756932c-1.326825,-1.903625 -0.764681,-4.395567 -0.492859,-5.11128c-2.649093,1.834497 -3.340167,2.730652 -4.583999,2.380627z" clip-rule="evenodd" fill-rule="evenodd"/>
   <path stroke="null" id="svg_64" fill="black" d="m46.889983,35.873356l0,1.744276c0.520729,-0.726364 1.534227,-0.583096 1.534227,-0.583096l0,2.518465c0,0 -0.036858,1.240541 -0.414695,1.770799l1.091934,0l1.091934,0c-0.382558,-0.530258 -0.414695,-1.770799 -0.414695,-1.770799l0,-2.513244c0,0 1.008777,-0.143268 1.529507,0.583305l0,-1.744485l-2.206746,0l-2.211466,0l0,-0.005221z" clip-rule="evenodd" fill-rule="evenodd"/>
   <path stroke="null" id="svg_65" fill="black" d="m129.46773,64.382409l0,-16.846088l8.644872,0l0,-6.130027l-23.584252,0l0,6.130027l8.64469,0l0,16.846088l6.29469,0zm17.458781,-22.976115l-6.294871,0l0,22.976115l6.294871,0l0,-22.976115zm4.606132,0l0,22.976115l5.791209,0l0,-12.694661l10.784983,12.694661l5.37143,0l0,-22.976115l-5.791209,0l0,12.598383l-10.533152,-12.598383l-5.623261,0zm34.319486,14.287733l7.258984,8.688382l8.099631,0l-10.113191,-11.970803l9.735535,-11.005311l-7.63664,0l-7.344319,8.640139l-1.67948,0l0,-8.640139l-6.084256,0l0,22.976115l6.084256,0l0,-8.688382l1.67948,0zm27.879363,-14.915313c-8.183151,0 -13.092679,5.309474 -13.092679,12.163985c0,6.854302 4.909528,12.163776 13.092679,12.163776c8.141391,0 13.050919,-5.309474 13.050919,-12.163776c0,-6.854511 -4.909528,-12.163985 -13.050919,-12.163985zm0,18.728619c-4.070696,0 -6.672527,-2.79978 -6.672527,-6.564634c0,-3.765063 2.601832,-6.516391 6.672527,-6.516391c4.028936,0 6.672527,2.751328 6.672527,6.516391c0,3.764854 -2.643592,6.564634 -6.672527,6.564634zm36.126062,-18.101039l-20.182807,0l0,22.976115l6.08244,0l0,-8.012767l13.22159,0l0,-5.068258l-13.22159,0l0,-4.054731l14.100367,0l0,-5.840359zm22.909919,0l-20.186438,0l0,22.976115l6.086071,0l0,-8.012767l13.219775,0l0,-5.068258l-13.219775,0l0,-4.054731l14.100367,0l0,-5.840359z"/>
  </g>
 </g>
</svg>