<svg width="218" height="40" xmlns="http://www.w3.org/2000/svg">
 <!-- Created with SVG Editor - http://github.com/mzalive/SVG Editor/ -->

 <g>
  <title>background</title>
  <rect fill="#fff" id="canvas_background" height="42" width="220" y="-1" x="-1"/>
 </g>
 <g>
  <title>Layer 1</title>
  <style transform="matrix(0.015655032806884073,0,0,0.015655032806884073,0,0) " type="text/css">.st0{fill:#00985F;}</style>
  <g stroke="null" id="svg_97">
   <g stroke="null" transform="matrix(0.5904026955238018,0,0,0.6018414713728768,-4849.549998061732,-1888.4207589333944) " id="svg_83">
    <g stroke="null" id="svg_84">
     <g stroke="null" id="svg_93">
      <path stroke="null" d="m8250.370247,3137.938332l0,33.4l0,0l0,0c0,1.5 -1.1,2.7 -2.7,2.7l-4,0l0,0c-0.2,0 -0.4,0.2 -0.4,0.4l0,28c1,0 1.9,0.2 3.1,0.2c17.9,0 32.4,-14.5 32.4,-32.4c0,-16.7 -12.4,-30.4 -28.4,-32.3zm-0.7,49.9c-2.3,0 -4,-1.9 -4,-4c0,-2.3 1.9,-4 4,-4c2.3,0 4,1.9 4,4c0.2,2.1 -1.8,4 -4,4zm9.5,0c-2.3,0 -4,-1.9 -4,-4c0,-2.3 1.9,-4 4,-4c2.3,0 4,1.9 4,4c0,2.1 -1.7,4 -4,4zm9.5,0c-2.3,0 -4,-1.9 -4,-4c0,-2.3 1.9,-4 4,-4c2.3,0 4,1.9 4,4c0,2.1 -1.7,4 -4,4z" class="st0" id="svg_95"/>
      <path stroke="null" d="m8246.370247,3137.738332c-17.9,0 -32.4,14.5 -32.4,32.4c0,15.6 10.9,28.6 25.6,31.7l0,-29.2l0,0c0,-1.3 1.1,-2.5 2.5,-2.7l0,0l1.3,0l2.7,0c0.2,0 0.4,-0.2 0.4,-0.4l0,-31.8l-0.1,0zm-6.3,26.7c-2.3,0 -4,-1.9 -4,-4c0,-2.3 1.9,-4 4,-4c2.3,0 4,1.9 4,4c0,2.1 -1.7,4 -4,4z" class="st0" id="svg_94"/>
     </g>
     <g stroke="null" id="svg_85">
      <polygon stroke="null" points="8570.9697265625,3155.4382894039154 8570.9697265625,3167.6382405757904 8554.5693359375,3167.6382405757904 8554.5693359375,3155.4382894039154 8546.3701171875,3155.4382894039154 8546.3701171875,3187.8381917476654 8554.5693359375,3187.8381917476654 8554.5693359375,3174.7383382320404 8570.9697265625,3174.7383382320404 8570.9697265625,3187.8381917476654 8578.9697265625,3187.8381917476654 8578.9697265625,3155.4382894039154 " class="st0" id="svg_92"/>
      <path stroke="null" d="m8435.970247,3159.038332c-1.3,-2.9 -4,-4.4 -6.7,-4.4l0,0l0,0l0,0c-2.7,0 -5.3,1.5 -6.7,4.4l-13.1,28.8l8.6,0l2.9,-6.9l16.8,0l2.9,6.9l8.6,0l-13.3,-28.8zm-12.4,15.5l5,-11.8c0.2,-0.4 0.4,-0.4 0.6,-0.4l0,0l0,0c0.2,0 0.6,0 0.6,0.4l5,11.8l-11.2,0z" class="st0" id="svg_91"/>
      <path stroke="null" d="m8339.470247,3149.538332c-3.8,0 -6.3,2.1 -8,6.1l-10.5,24.4l-10.5,-24.4c-1.7,-4 -4.2,-6.1 -8,-6.1c-3.6,0 -7.2,2.5 -7.2,8l0,30.1l8,0l0,-29.2l10.7,24.2c1.3,3.4 3.8,5.5 7.1,5.5l0,0l0,0l0,0l0,0c3.4,0 5.7,-2.1 7.1,-5.5l10.7,-24.2l0,29.4l8,0l0,-30.1c-0.2,-5.5 -3.8,-8.2 -7.4,-8.2z" class="st0" id="svg_90"/>
      <path stroke="null" d="m8360.970247,3181.038332c-0.4,0 -0.8,-0.4 -0.8,-0.8l0,-5.7l20.3,0l0,-6.7l-20.2,0l0,-5c0,-0.4 0.4,-0.8 0.8,-0.8l20,0l0,-6.9l-24,0c-2.9,0 -4.8,2.3 -4.8,4.8l0,22.7c0,2.5 2.1,4.8 4.8,4.8l24,0l0,-6.9l-20,0l0,0.5l-0.1,0z" class="st0" id="svg_89"/>
      <path stroke="null" d="m8394.570247,3187.838332l0,-24.8c0,-0.4 0.4,-0.8 0.8,-0.8l20,0l0,-6.9l-24,0c-2.9,0 -4.8,2.3 -4.8,4.8l0,27.5l8,0l0,0.2z" class="st0" id="svg_88"/>
      <path stroke="null" d="m8541.070247,3171.638332c0,-11.3 -5,-16.6 -17.2,-16.6l-2.9,0c-12.2,0 -17.2,5.3 -17.2,16.6l0,0c0,11.1 5,16.6 17.2,16.6l2.7,0c12.4,-0.2 17.4,-5.5 17.4,-16.6l0,0zm-17.4,9.8l-2.7,0c-6.7,0 -9.3,-3.1 -9.3,-9.7l0,0c0,-6.5 2.3,-9.7 9.3,-9.7l2.7,0c6.9,0 9.3,3.2 9.3,9.7l0,0c0,6.6 -2.4,9.7 -9.3,9.7z" class="st0" id="svg_87"/>
      <path stroke="null" d="m8481.370247,3150.338332l-16,0c-12,0 -16.8,6.1 -16.8,16.6c0,1.7 0.2,3.2 0.4,4.6c1.3,7.4 5.7,12 17,12l3.6,0l0,4.2l8,0l0,-4.2l3.4,0c11.3,0 15.6,-4.6 17,-12c0.2,-1.3 0.4,-2.9 0.4,-4.6c-0.3,-10.5 -5.2,-16.6 -17,-16.6zm-12.2,26.5l-3.7,0c-5.5,0 -7.4,-2.1 -8.6,-5.3c-0.4,-1.1 -0.4,-2.9 -0.4,-4.6c0,-6.9 3.2,-9.7 7.8,-9.7l5,0l0,19.6l-0.1,0zm20.6,-5.2c-1.1,3.2 -3.2,5.3 -8.6,5.3l-3.7,0l0,-19.8l5,0c4.6,0 7.8,2.9 7.8,9.7c-0.2,2 -0.2,3.5 -0.5,4.8z" class="st0" id="svg_86"/>
     </g>
    </g>
   </g>
  </g>
 </g>
</svg>